<svg id="Capa_1" data-name="Capa 1" xmlns="http://www.w3.org/2000/svg" viewBox="0 0 400 400"><defs><style>.cls-1{fill:#004c9a;}</style></defs><path class="cls-1" d="M377.63,188.16V215a17.27,17.27,0,0,0-1.28,3.56c-10.22,75-51.39,125-122.42,150.25-12.92,4.59-27,6-40.51,8.82H185a19.52,19.52,0,0,0-3.61-1.24c-74.78-10.08-124.78-51-150.06-121.75-4.69-13.13-6.06-27.45-9-41.22v-30a34.62,34.62,0,0,0,1.31-4.48C33.91,108.68,72.27,60.2,137.89,34c15.33-6.12,32.41-7.86,48.69-11.62h26.84a51.49,51.49,0,0,0,5.29,1.27c74,10,123.77,50.4,149.24,120.23C373.08,157.94,374.5,173.36,377.63,188.16ZM199.9,38.27C109.52,38.78,39.48,111,38.43,195.78c-1.15,92.67,70.75,165.92,161,165.94,88.42,0,162.15-72.5,162.2-159.54C361.73,111.2,289.72,38.24,199.9,38.27Z"/><path class="cls-1" d="M160.78,189.35c-.77-7.49,3-11.3,9.77-12.5,11.24-2,22.73-6.12,33.72-5.09,18,1.67,24.56,15.7,19.28,36.38-3.63,14.22-8.3,28.18-11.62,42.47-4.62,19.94.8,25.07,21.16,21.17l4.09-.81c.66,6.2-1.63,10.06-7.76,11.54-8.89,2.13-17.66,5.67-26.65,6.35-22.45,1.7-34.7-12.88-29.6-34.71,3.4-14.54,8.14-28.76,11.79-43.24,5.5-21.82-.33-27.43-22-21.74A11.31,11.31,0,0,1,160.78,189.35Z"/><path class="cls-1" d="M217.59,152.28c-12.44,0-22.61-9.09-22.7-20.32S205,111.5,217.38,111.3c12.7-.2,23.09,9.26,22.91,20.87C240.12,143.59,230.32,152.27,217.59,152.28Z"/></svg>