<svg id="Capa_1" data-name="Capa 1" xmlns="http://www.w3.org/2000/svg" viewBox="0 0 400 400"><defs><style>.cls-1{fill:#004c9a;}</style></defs><path class="cls-1" d="M339.1,332.65c-1.79-3.34-4-6.54-5.29-10-3.72-10.15-6.83-20.53-10.69-30.63-1.93-5.05-6.13-6.81-12.05-6.78-48.88.25-97.77.15-146.66.14-2.28,0-5,.69-6.73-.28-2.51-1.41-6-4.07-5.93-6.15s3.37-4.85,5.87-6.31c1.7-1,4.45-.29,6.73-.3h192.5V250.45c-1.84-.09-3.77-.29-5.69-.29q-99.17,0-198.34,0c-14.79,0-21.67-6.93-21.76-21.47,0-4.16,0-8.31,0-13H42.34v56.61H96.79c4.85,0,8.87,1.39,8.63,6.93-.22,5.11-4.17,6.22-8.67,6.1H96c-17.75.42-19.8,1.69-25.67,18.4-2.2,6.27-2.94,13-5.07,19.32-1.17,3.46-3.87,6.41-5.87,9.6H29V83.74q13.32-22,32.08-14.45c12.45,5,18.4,18.83,12.53,30.64-2,4.07-1.16,6.68.21,10.63,2.12,6.13,2.11,13,3.13,20.45,1.81,0,4.23,0,6.64,0,11.76.15,21.6,4.27,29.41,13,7,7.82,14.22,15.39,21.28,23.13,1.84,2,4.41,4.07,4.93,6.46,2.54,11.73,11,11.18,20.55,11.12,51.36-.31,102.74-.46,154.1.1,11.7.13,23.51,2.64,35,5.23,9,2,15.49,8,19.4,16.44.56,1.21,1.85,2.1,2.81,3.14v123ZM144.44,197.7v28.21c0,10.8.57,11.38,11.52,11.38h185.4c16.05,0,16.05,0,15.93-16-.09-11.15-3.46-16.65-14.58-19.6a108.69,108.69,0,0,0-26.87-3.84c-54.71-.34-109.41-.17-164.12-.18Zm-81.93,4c0-26.91-.25-53,.15-79.16.11-7.55-3-9.28-10-9-10.16.39-10.8.51-10.81,8.79q-.06,36.64,0,73.27c0,1.92.32,3.83.51,6.11Zm69.88-10.4c-2.51-4.92-4.26-10.42-7.69-14.63a216,216,0,0,0-22.83-24.59c-4.32-3.86-10.63-6.4-16.47-7.67-7.26-1.58-10.11,1.08-9.2,8.44.69,5.57,2.45,11.73,5.82,16.11a214.59,214.59,0,0,0,23.21,25.24,33,33,0,0,0,14.31,7.33C128.1,203.59,131.1,200.58,132.39,191.28ZM42.24,320.34c4.4-1.54,9.64-1.89,10.42-3.89,3.89-10,6.61-20.42,9.72-30.6H42.24Zm294.14-34.69c3.12,9.25,6.25,17.52,8.69,26s2.68,8.82,11.59,6.23V285.65ZM62.45,90.44A10.31,10.31,0,0,0,52.21,80.7c-5.65,0-10.54,5-10.23,10.47.3,5.17,5.3,9.59,10.61,9.39S62.59,95.65,62.45,90.44ZM76.13,201.58H93.68l-17.55-19Z"/><path class="cls-1" d="M137.47,278.41c-3.72,3-6.18,6.58-8.2,6.35-2.63-.29-4.91-3.57-7.33-5.56,2.19-2.27,4.09-5.81,6.69-6.39C130.59,272.37,133.45,275.7,137.47,278.41Z"/></svg>