<svg id="Capa_1" data-name="Capa 1" xmlns="http://www.w3.org/2000/svg" viewBox="0 0 400 400"><defs><style>.cls-1{fill:#004c9a;}</style></defs><path class="cls-1" d="M389,290.55v12.38c-5.51,2.09-10.9,4.56-16.55,6.17s-11.3,2.27-17,3.36a20,20,0,0,0,7.68,3.11c11,2.57,13.57,7,11,18.89-1.89,8.58-6.27,11-16.55,9.19-13.14-2.28-26.29-4.49-39.48-6.73-2.47,21-11.27,28.55-32.52,28.56q-98,.06-196,.14c-3.41,0-6.82.5-10.23.77H69.76c-5.87-1.17-11.87-1.94-17.61-3.58-21-6-34-20-41.15-39.76V299.83c4.43-7.5,9-14.91,13.2-22.54,1.86-3.4,4-7.26,4-10.92.26-49.26.13-98.52.2-147.78,0-15.73,7-24.62,21.58-28.27,1.23-.31,2.43-.76,3.7-1.16.52-5.34,1.66-10.16-4.24-13.79-2-1.24-2.75-5.41-3-8.32-.44-5.9.23-11.88-.23-17.78-.53-6.81,1.39-12.13,7.6-15.66h49.24c2.28,3.26,6.17,6.36,6.54,9.81.93,8.67.45,17.51.12,26.27-.08,2.08-1.23,5-2.87,6-6,3.56-4.59,8.46-3.75,13.81,27.7,4.61,25.47,25.48,25.06,44.52,1,.54,1.22.76,1.42.75,10.86-.54,21.37.83,32.4-4.22,6.86-3.14,17.32,1.19,28.58,2.44,5.61-5.57,13.31-13.36,21.2-21,7.53-7.27,12.42-7.15,19,1,4,5,7.14,10.61,10.83,16.21a49.82,49.82,0,0,1,33.69-5.12c7.14,1.34,11.52,4.83,12.37,12,.67,5.57,1.19,11.16,1.78,16.74,21.16,1.08,27.83,6.21,34.94,26.88,21.5,3.34,27.09,10.88,22.87,30.91-.26,1.26-1,2.5-.95,3.73a25.74,25.74,0,0,0,1,5.53c.91,3.61,2.71,7.18,2.77,10.79.1,6.39-.83,12.8-1.35,19.49,9.33,1.78,13.23,8.65,14.85,16.37,2.09,10-8.92,11.35-14.69,18.1L370.1,281C382.17,278.91,384,279.85,389,290.55ZM263.66,214l5.89,10.15a98.08,98.08,0,0,1-9.28,4.11c-1.66.55-3.67.1-5.52.1H83.62c.37,5.82.68,10.6,1,15.38l1.61-1.07,10.92,9.57c14-.95,27.77-.6,40.61,12.63,9.94,10.25,21.55,18.56,26.84,33,4.32-1.53,8.15-3.56,12.18-4.09,3-.41,8.09.12,9.17,2,2.78,4.72-1.76,6.55-5.59,8L152,314.28c-1.84,5.9,5.25,13.75-3,16.28-8.94,2.73-5.75-7.7-9.7-11.58-6.08,2.25-12.24,4.46-18.34,6.81-9,3.48-12.77,9.4-11.13,17.11,1.56,7.41,7.11,11.43,16.4,11.47,18.79.09,37.58,0,56.36,0a49.31,49.31,0,0,0,6.08-.77c-1-5-2.43-9.27-2.36-13.55,0-2.45,2.56-4.86,4-7.29,2.21,1.72,5.59,3,6.41,5.23,1.84,5,2.42,10.44,3.65,16.39,12.94,0,25.59,0,38.25,0,1.79,0,3.58-.38,5.67-.61-.52-3.15-1.76-6.07-1.23-8.64.57-2.76,2.81-5.19,4.32-7.76,2.13,1.88,5.1,3.39,6.18,5.72,1.55,3.35,1.7,7.31,2.43,10.87h18.88c-1.06-5.52-2.6-10.49-2.72-15.5-.06-2.38,2.57-4.83,4-7.25,2.21,1.71,5.64,3,6.4,5.22,1.89,5.54,2.58,11.46,3.71,17,14.52,2.31,22.07-4.92,19.54-18.16-3.43-18-6.8-36-10.37-53.95-2.4-12.09-10.2-16.26-22.16-12-8.93,3.2-17.78,6.63-26.67,9.94-13,4.84-13,4.84-11.58,18.33.06.51.37,1.15.16,1.51-1.27,2.26-2.66,4.46-4,6.68-2.27-1.66-5.54-2.87-6.58-5.08-1.67-3.54-1.86-7.74-2.74-12-2.88.9-4.92,2.17-6.84,2-2.75-.25-5.41-1.55-8.1-2.41,1.29-2.43,2-6.33,4-7.08,21.4-8.2,42.9-16.17,64.59-23.6,8.4-2.88,16.31.13,22.64,5.92,3.16,2.88,5.38,6.73,8.58,10.87,9.7-6.18,21.49-10.68,28.28-19,5-6.17,3.52-17.38,5-27-13.55,0-25.18.12-36.8-.07-4.7-.07-11.56,1.87-11.82-5.17-.09-2.49,6-5.19,10.33-8.68.37-6.31-2.28-11.09-10.08-13.09-5.21-1.33-7.05-3.82-8.15-8.78-2.39-10.77-12.53-14.28-22.63-8.31C273.58,193.92,265.07,205.11,263.66,214ZM116.23,125.65c3.24-18.34-2.47-25.1-21.15-25.12q-17.44,0-34.89,0c-17.28,0-23.93,8.76-19.26,25.91,10.13,0,20.4,0,30.68,0,4.32,0,9.64-.08,8.83,5.7-.29,2-5.6,4.69-8.76,4.88-10.44.61-20.94.23-31.57.23V200.9c16.12,0,31.69.36,47.22-.18,5.81-.2,10.25-3.33,9.67-10.45-.67-8.15,2.58-15,8.28-21a16.72,16.72,0,0,0,3.47-5.59c2.56-6.82,4.88-13.72,7.22-20.62a44.9,44.9,0,0,0,1.1-4.73c-5.33-3-15.11,2.5-15.26-6.4S111.61,128.45,116.23,125.65Zm7.82,149.25c2.74,14.63-2.56,19.89-15.13,17.26-6.83-1.43-13.22-6.91-19.8-6.89-6.84,0-13.49,5.27-20.55,6.81-13,2.83-18-2-16.63-17.09-4,.84-8,.64-10.62,2.38-13.39,8.87-20.68,21.22-19.44,37.31s10.4,27.22,24.71,34.4c17.57,8.81,36.33,4.31,53.93,5.25-.64-7.27-2.26-13.44-1.47-19.31,1.3-9.74,8.09-15.82,17.42-19.25,12.47-4.59,24.91-9.24,37.46-13.9-3.42-11.12-9.48-19.07-18.51-24.53C132.7,275.69,128.82,275.85,124.05,274.9ZM157.36,188c4.61-1,9.18-2.6,13.84-3,6.3-.52,12.68-.12,19-.14,6.14,0,14.33-6.81,13.33-13.22-.55-3.58-5.84-7.49-9.91-9.26-4.5-1.95-7.65-3.31-8.25-8.74-.74-6.66-5-11.36-11.72-13.2s-12.76-.45-17.29,4.77c-3.47,4-6.7,5-11.57,2.09-5.95-3.55-12.24-3-17.9,1s-8.15,9.56-6.66,16.21c1.14,5.05-.5,7.93-4.8,10.9-8.67,6-9.68,14.27-3.6,22.47C118.09,181.62,133.85,178.74,157.36,188ZM83.77,212.18H40v53.67c8.34-14.52,21.59-13.58,34.47-14.58-.55-5-1.28-9.5-1.51-14.06-.42-8.29-2.72-17.48,9.2-20.73C82.87,216.29,83,214.26,83.77,212.18ZM349,262.06c-12.8,7.35-24.76,14-36.4,21.11-2.09,1.28-4.34,4.77-4,6.92,1.46,10.45,3.61,20.83,5.92,31.15.39,1.77,2.51,4.19,4.19,4.51,14.47,2.8,29,5.19,43.55,7.7l2-2c-1.63-1.84-2.94-4.81-4.93-5.34-10.71-2.84-21.69-4.74-32.35-7.73-3.11-.88-5.49-4.25-8.2-6.48,2.8-1.87,5.38-4.79,8.45-5.42,15-3.09,30.12-5.67,45.24-8.18,5.23-.87,7.11-2.55,3.47-7.39-16.15,2.91-32,6-47.87,8.44-3.85.58-10.26,0-11.68-2.25-3.18-5.08,2.86-7.24,6.39-9.59,9.79-6.55,19.71-12.92,29.93-19.59ZM167.81,196.15c1.61,5.59,2.6,10.59,4.51,15.23,3,7.37,10.87,8.67,17,3.18,8.35-7.51,10.14-7.18,15.19,3.56,5.22-4.77,10.93-4.63,16.37-.08,3-10.08,6.22-10.95,13.16-4.57,5.7,5.24,14.32,6,16.8,1,2.72-5.53,4.12-11.68,6.34-18.3Zm64.13-35.56c5.65,3.64,9.63,2.1,13.29-2.3,2.32-2.79,4.83-5.76,7.94-7.48,2.16-1.19,5.47-.39,8.27-.48-.14,2.54.6,5.62-.62,7.5-2.07,3.19-5.2,5.83-8.21,8.34-4.25,3.55-3.53,6.21.91,8.73,2.27-1.08,4.33-2.27,6.54-3.09,13.71-5.11,21-18.28,17-31.88a9.08,9.08,0,0,0-5.5-5.31C254.05,130.39,235.4,142.67,231.94,160.59ZM98.46,46H58.12V67.26H98.46Zm22.35,220.12.15-2.36H95.74c-4.81,0-9.74.7-14.41-.07-8.74-1.45-17.18-2.06-27.25,1.68,5.75,2.23,10.74,2.78,13,5.49,1.66,2-.23,6.8-.63,11.36,4.68-2.05,10-3.35,14-6.37,5.91-4.53,10.34-4,16.13.17,4.15,3,9.61,4.19,14.48,6.19C105.36,272,105.46,271.83,120.81,266.16Zm41.33-49.6c-.54-1.52-1-2.68-1.38-3.86a27.34,27.34,0,0,0-31.53-17.95c-1.69.33-4.58,1.37-4.62,2.19-.31,6-1,12.34.59,18,.55,1.94,7.22,2.25,9.83,3l3.4-10.23c3.17,1.14,6.8,1.68,9.4,3.56C151.92,214.18,154.69,219.42,162.14,216.56Zm58.72-57.22-1.13-1.78c-1.29-.09-2.88.26-3.8-.35a89,89,0,0,1-7-5.58,68.27,68.27,0,0,1,7.47-5c1.24-.63,3.11,0,4.69-.1,4.62-.19,11.09-7.43,9.49-11.5-2.25-5.72-5.61-11-8.89-17.28l-24.28,23.67c-4.33,4.22-2.79,7.85,1.42,10.86C204,156,209.4,159.4,215.52,163.5Zm75.92,31.33c3.55-2,8.12-4.11,11.91-7.11,1.77-1.41,3.27-4.88,2.79-6.95-1.71-7.19-7.15-11.3-14.46-12.35-7-1-12.82,1.4-16.23,6.2Zm25,26.65c4.56-.47,12.59,3.11,13.69-6.32.7-6,1.16-13.25-1.6-18.17s-19.59-.89-26.67,5.32l4.4,7.1h10.86C322.21,209.05,322,212.85,321.74,217.32Zm-77.26-32.86c-4.68-9.48-11-13.68-18.85-12.65-7.45,1-13,4.53-15.31,12.65ZM91,79H65.65v10.1H91Zm2.1,137.77h22.2l-13.87-11.9Z"/><path class="cls-1" d="M146.3,153.14c2,1,6.24,2.5,9.63,5.06,1.42,1.08,2.2,5.53,1.24,6.46-1.57,1.52-5.57,2.7-7.19,1.77-6.48-3.69-10.07-2.79-12.44,4.45-.58,1.78-4.26,2.6-6.51,3.87-1.29-2.25-3.69-4.5-3.67-6.74C127.44,160.32,135.61,153.38,146.3,153.14Z"/><path class="cls-1" d="M186.79,179.47c-.72.82-1.75,2.81-3.4,3.63-1.24.62-4,.38-4.81-.54-4.52-5.44-8.44-6.41-13,.05-.75,1.06-4,1.24-5.66.67-1.31-.44-2.62-2.56-2.85-4.09-.8-5.29,6.87-11.83,14-12.25S187,172.77,186.79,179.47Z"/><path class="cls-1" d="M183.56,211.78l-8.62-8.33c3-1.76,6.07-4.89,9.1-4.89s6.1,3.11,9.14,4.86Z"/><path class="cls-1" d="M240.33,211.84l-8.55-8.37c3-1.76,5.95-4.9,8.94-4.91s6,3.09,9,4.83Z"/><path class="cls-1" d="M213.3,145.32c-2.71-4.14-5.71-7.37-5.16-8.12a53.31,53.31,0,0,1,10-9.93c.3-.25,5.55,4.26,5.29,4.68C220.93,136.05,217.71,139.76,213.3,145.32Z"/></svg>