<svg id="Capa_1" data-name="Capa 1" xmlns="http://www.w3.org/2000/svg" viewBox="0 0 400 400"><defs><style>.cls-1{fill:#004c9a;}</style></defs><path class="cls-1" d="M192.68,367.08C105.34,367.53,30.2,289.64,30,198.41c-.24-89,76.41-167.18,164.36-167.68,90.93-.52,170.31,76.47,170.57,165.45C365.17,292.16,290.18,366.58,192.68,367.08ZM44.85,199.32l-3.25.57C45.24,219,46,239.25,53.1,257c15.33,38.3,44,65.09,80.58,84.46,18.2,9.64,32.89,9.27,48.79-3.9,28.93-24,59-46.55,87.92-70.57,25-20.74,49-42.56,73.29-64.12,6.87-6.1,10.65-13.74,8.77-23.44-8.13-42.06-27.62-77.21-62.12-103.5-7.49-5.71-14.82-8.34-24.24-4.91-9.9,3.6-20.38,5.58-30.29,9.17q-85.73,31.05-171.31,62.54c-13.12,4.8-20.13,13.74-19.7,28.14C45.08,180.33,44.85,189.83,44.85,199.32ZM188.54,351c29.24,8.9,82.92-7.55,113.91-37.77,27.19-26.52,51.62-74.66,44.41-93.59ZM63,122.66l3,2.56c62.38-22.63,125.62-43,186.7-69l-.7-5.77c-16.36-2.06-32.7-5.49-49.11-5.93-54.76-1.47-99.1,20.08-132.66,63.37C67,112.14,65.38,117.71,63,122.66Z"/><path class="cls-1" d="M84,257.43c14-16.62,26.05-31.15,38.38-45.39,14.09-16.27,28.83-32,42.57-48.53,8.72-10.51,18-17.12,32.6-18.2,36.95-2.75,73.77-7.38,113.2-11.53-3.13,4.91-4.92,8.17-7.14,11.12-22.35,29.72-44.63,59.5-67.37,88.92-2.79,3.62-7.9,7-12.32,7.57-43.68,5.69-87.43,10.79-131.17,16C91,257.61,89.15,257.43,84,257.43ZM281.54,153.11,279.33,150c-2.39-.13-4.82-.6-7.17-.33-24.21,2.79-48.36,6.18-72.62,8.37-11.86,1.08-20.3,6.24-27.66,15.11-14.9,17.94-30.35,35.43-45.44,53.22-2.9,3.42-5.16,7.38-9.3,13.37,5.79,0,8.88.33,11.87,0,26-3.26,52-6.23,77.91-10.25,7.53-1.17,17-3.42,21.43-8.66C246.93,199,264,175.79,281.54,153.11Z"/></svg>