<svg id="Capa_1" data-name="Capa 1" xmlns="http://www.w3.org/2000/svg" xmlns:xlink="http://www.w3.org/1999/xlink" viewBox="0 0 1125 2436"><defs><style>.cls-1{fill:none;}.cls-2{fill:#161e29;}.cls-3{font-size:55.17px;font-family:MyriadPro-Regular, Myriad Pro;}.cls-10,.cls-3{fill:#fff;}.cls-4{letter-spacing:-0.03em;}.cls-5{letter-spacing:-0.01em;}.cls-6{letter-spacing:-0.01em;}.cls-7{letter-spacing:0.01em;}.cls-8{letter-spacing:-0.01em;}.cls-9{clip-path:url(#clip-path);}.cls-11{fill:#0e1621;}.cls-12{fill:#00c8ff;}</style><clipPath id="clip-path"><rect class="cls-1" x="297.14" y="176.97" width="716.86" height="199.43"/></clipPath></defs><rect class="cls-2" width="1125" height="2436"/><text class="cls-3" transform="translate(61.1 100.18)"><tspan class="cls-4">W</tspan><tspan class="cls-5" x="44.85" y="0">a</tspan><tspan class="cls-6" x="71" y="0">v</tspan><tspan x="96.98" y="0">es </tspan><tspan class="cls-7" x="158.17" y="0">S</tspan><tspan x="185.69" y="0">ea</tspan><tspan class="cls-8" x="239.92" y="0">r</tspan><tspan x="257.41" y="0">cher</tspan></text><g class="cls-9"><g class="cls-9"><path class="cls-10" d="M417.77,203.69a72.75,72.75,0,1,0,72.74,72.74,72.83,72.83,0,0,0-72.74-72.74m-19.5,126c-6.26,0-12.55-2.14-18.7-6.36l-.16-.12a59.79,59.79,0,0,1-21.21-38.54l-1.07-8.4,1.1,1.52a99.38,99.38,0,0,0,10.46,15.62c14.16,17.23,32.38,26.29,53.15,26.58a33.44,33.44,0,0,1-23.57,9.7Zm-7.22-28.81a45.92,45.92,0,0,0,37.17-9.38l3.19-2.57.31,4.09c.07.85.1,1.72.1,2.58a33.28,33.28,0,0,1-3.23,14.34c-14,1.2-26.57-1.84-37.54-9.06m69.7,17.49,0,0A60.23,60.23,0,0,1,425.83,336l-.11,0-8.33,1,6.79-4.94a46.22,46.22,0,0,0,7.37-68.1l-2.89-3.25,4.34-.34a34.51,34.51,0,0,1,27.75,58m-25.07-66.84c-1.06,0-2.12,0-3.17.11a48.66,48.66,0,0,0-28.72,11.73,33.59,33.59,0,0,1,22.58,14.74l.88,1.34-.62.73a35,35,0,0,1-21.11,12.15,34.31,34.31,0,0,1-39.7-33.85,34,34,0,0,1,5.5-18.63h93.41A60,60,0,0,1,477,267.39l1.3,7.83-5.09-6.1a48.71,48.71,0,0,0-37.54-17.59"/><path class="cls-10" d="M536.8,286.31c-16.8,0-25.86-6.42-25.86-17.37v-7.53h.55c4.76,4.87,14.7,7.75,23.43,7.75,9.72,0,12.82-2.32,12.82-7.41,0-4.65-4.2-6.2-15.8-8.53-16.58-3.32-23-9.4-23-21,0-13.61,12.38-25.79,31.72-25.79,18.78,0,26,8.52,26,16.38v8.08h-.56c-5.08-5.09-14.25-7.3-22.21-7.3-10.39,0-13.92,2.76-13.92,7.08,0,3.43,1.43,5.31,15.58,8.19,15.69,3.21,23.21,9.63,23.21,21.47,0,15.82-11.61,26-31.94,26"/><path class="cls-10" d="M607.51,286.14c-19.48,0-30.09-9.52-30.09-28.78V223.68h9.05c8.72,0,12.51,3.07,12.51,12.26V257.4c0,8.86,4,11.6,9.45,11.6,4.73,0,8.51-2.85,8.51-12.37V223.68h8.31c8.53,0,13.25,3.51,13.25,12.26v22c0,19.26-12.26,28.24-30.76,28.24"/><path class="cls-10" d="M686.39,239.85a17.11,17.11,0,0,0-7-1.21c-4.8,0-8.56,2.54-8.56,9.91v36.22H664c-9.12,0-14.69-4.16-14.69-14.23V244.38c0-12.15,8.35-21.78,22.26-21.78,10.57,0,15.47,4.27,15.47,9.85v7.4Z"/><path class="cls-10" d="M732.33,218.29c-2.4-1.27-6.85-1.73-9.7-1.73-5.13,0-8.67,3-8.67,6.81v7.5h14.37v7.73c0,4-3.87,6.64-9.35,6.64h-5v39.53h-6.11c-9.67,0-13.65-3.87-13.65-13V229.89C694.2,208,707,202,718.17,202c10,0,13.76,5.19,13.76,11.48v4.86Z"/><path class="cls-10" d="M815.46,232.67c-3.83-4.76-13.25-7.6-21.57-7.6-12.26,0-21.23,8.1-21.23,20.35,0,15.44,9.41,22.77,21.67,22.77,8.1,0,17.08-3.06,20.8-6.78h-.56V269c1.1,9.74-8.64,17.18-23.41,17.18-20.69,0-39.3-14.88-39.3-38.74,0-22,15.44-40.29,40.61-40.29,14.78,0,23.53,7.34,23.9,18v7.6Z"/><path class="cls-10" d="M835.92,220.8c-6,0-10.94-4.6-10.94-10.29s4.92-10.29,10.94-10.29a10.3,10.3,0,1,1,0,20.58m9.13,64.47c-11,0-19.7-5.48-19.7-19.71V225.48h6c11.76,0,15.57,3.37,15.57,14.23v21.94c0,5.32,2.51,7,8.28,7h2.5v7c0,7.23-5.47,9.64-11.93,9.64"/><path class="cls-10" d="M872.26,213.36a18.12,18.12,0,0,1,10.84-4.05h1.54v14.37h18v7.08c0,5.15-5.58,9.09-10.38,9.09h-7.59v21.81a6.47,6.47,0,0,0,6.45,6.46c5.19,0,7.57-.43,9.84-1.32h-.12v8.1c0,5-4.49,9.63-15.08,9.63-10.05,0-20.85-4.92-20.85-21.45V226.49c0-5.48,3.17-9.85,7.22-12.92"/><path class="cls-10" d="M955.77,268c-16.86,32.4-21.13,35.69-33.72,35.69-6.67,0-12.26-3.62-12.26-10.4v-5l9-.66c5.48-.43,8-2.62,10.18-7.55-8.65-12.91-19.7-40.28-22.11-56.37h10.83c5.15,0,10.51,3.18,11.72,8.54a173.89,173.89,0,0,0,9.41,28.46c4.49-9.09,9.19-25.29,10.51-37h10c6,0,8.86,2.85,8.86,7.66,0,6.35-5.69,23.87-12.36,36.67"/><path class="cls-10" d="M543.85,341.18c-.07,4.19-2.2,6.47-11.34,6.47h-6c-11.35,0-17.33-6.47-17.33-18.77V320a103.64,103.64,0,0,1,.89-13.57c.74-5.76,3.33-7.24,7.13-7.24h24.32v4.13c0,3.24-2,4.86-6.2,4.86H519.45a88.25,88.25,0,0,0-.67,10.78h17.31v3.14c0,2.89-1.9,4-5.65,4H518.13v1.77c0,9.06,3,10.81,11,10.81h3.35a52.81,52.81,0,0,0,11.42-1.14Z"/><path class="cls-10" d="M560.56,347.71c-7.72,0-11.89-4.1-11.89-11.68V297.35h2.19c4.74,0,6.79,2.73,6.79,6.3v31.84c0,3.78,2,5,6.44,5h2.55v1.61c0,4-2.16,5.63-6.26,5.63"/><path class="cls-10" d="M600.65,349.16c-9.41,0-14.25-3.88-14.25-9.7v-4.38h.2a18.58,18.58,0,0,0,13,5.31c7,0,9.27-2.51,9.27-6.47,0-3.37-1.23-4.88-11.12-7.11-7.9-1.8-12.4-6-12.4-12.65,0-8.19,6.54-16,17.52-16s14,4.88,14,9v4.53h-.27c-2.86-3.24-7-4.82-12.14-4.82-7.22,0-9.88,2.52-9.88,6.33,0,2.94,2.18,4.74,10.91,6.68,8.52,1.87,12.68,6.54,12.68,13.15,0,9.7-6.28,16.1-17.59,16.1"/><path class="cls-10" d="M640.3,347.65h-1.06c-8.8,0-14.84-4.95-14.84-11.75,0-6.59,4.81-11.6,18.41-11.6h2.88v-.43c.49-5.29-2-6.88-7.57-6.88a22.4,22.4,0,0,0-11.89,3.71h-.3v-3c0-4.17,3.66-9.17,13.28-9.17,8.14,0,15.46,3.89,15.46,16.82v9.21c0,7.93-5.84,13.42-14.18,13.42m5.2-16.51h-3.34c-7.09,0-9.1,1.67-9.1,4.73s2.36,4.65,6.46,4.65,6-1.94,6-5.77Z"/><path class="cls-10" d="M675.54,347.71c-7.72,0-11.89-4.1-11.89-11.68V297.35h2.2c4.73,0,6.79,2.73,6.79,6.3v31.84c0,3.78,2,5,6.44,5h2.54v1.61c0,4-2.15,5.63-6.25,5.63"/><path class="cls-10" d="M712.48,326.16C710,333,705.85,342,701.7,347.65h-1.8c-2.76,0-4.21-1-6.08-3.73-5-7.67-11.4-23.91-12.23-34h5a5.59,5.59,0,0,1,5.53,4.42,77.81,77.81,0,0,0,7.12,21.77,92.13,92.13,0,0,0,8.16-26.19h3.93c3.18,0,4.36,1.38,4.36,4.42,0,1.11-.9,5.6-3.18,11.82"/><path class="cls-10" d="M737.32,347.65h-2.73c-8.79,0-14.84-4.95-14.84-11.75,0-6.59,4.81-11.6,18.42-11.6h2.74v-.43c.63-5.29-1.87-6.88-7.43-6.88a22.36,22.36,0,0,0-11.89,3.71h-.44v-3c0-4.17,3.66-9.17,13.28-9.17,8.14,0,15.46,3.89,15.46,16.82v9.21c0,7.93-5.84,13.42-14.18,13.42m5.2-16.51h-3.33c-7.1,0-9.11,1.67-9.11,4.73s2.36,4.65,6.46,4.65,6-1.94,6-5.77Z"/><path class="cls-10" d="M773.72,348.23c-9.59,0-17-8.62-17-18.91,0-12.3,5.81-20.3,16.41-20.3a10.59,10.59,0,0,1,9.05,5.91V297.35H785c4.33,0,6.22,2.57,6.22,6.32v26.42c0,10.91-5,18.14-17.5,18.14m-.42-31.38c-4.72,0-7.78,4.58-7.78,10.63,0,7.79,4,12.86,9.38,12.86s7.51-3.89,7.51-10.7c0-9.39-4.1-12.79-9.11-12.79"/><path class="cls-10" d="M817.64,309c11.27,0,17.73,9,17.73,19,0,11.26-6.46,20.23-18.56,20.23-11.26,0-17.72-9-17.72-18.91,0-11.26,6.46-20.3,18.55-20.3m-.83,8.34c-5.35,0-8.06,4.45-8.06,10.64,0,7.44,2.71,11.89,8.89,11.89,5.43,0,8.07-4.45,8.07-10.57,0-7.51-2.78-12-8.9-12"/><path class="cls-10" d="M864.52,318.91a13.9,13.9,0,0,0-5.57-1.13c-4.29,0-6.65,2.32-6.65,8.08v21.79h-2.19c-4.16,0-6.79-2.08-6.79-6V324.44c0-7.51,3.95-14.67,13.8-14.67,5.75,0,7.76,3.27,7.76,6.12v3Z"/></g></g><rect class="cls-11" x="232" y="424" width="842" height="543" rx="80.79"/><path class="cls-10" d="M300.75,475.38h4.4v30.05h14.4v3.65h-18.8Z"/><path class="cls-10" d="M345.45,496.78c0,9-6.25,12.85-12.05,12.85-6.5,0-11.6-4.8-11.6-12.45,0-8.05,5.35-12.8,12-12.8C340.75,484.38,345.45,489.43,345.45,496.78ZM326.3,497c0,5.3,3,9.3,7.3,9.3s7.35-3.95,7.35-9.4c0-4.1-2.05-9.25-7.25-9.25S326.3,492.48,326.3,497Z"/><path class="cls-10" d="M351,492.43c0-2.85-.05-5.3-.2-7.55h3.85l.2,4.8H355a7.32,7.32,0,0,1,6.75-5.3,9,9,0,0,1,1.2.1v4.15a6.85,6.85,0,0,0-1.5-.1c-3.1,0-5.3,2.3-5.9,5.6a13.16,13.16,0,0,0-.15,2.05v12.9H351Z"/><path class="cls-10" d="M369.3,497.78c.1,6,3.85,8.4,8.3,8.4a15.74,15.74,0,0,0,6.7-1.25l.8,3.15a19.71,19.71,0,0,1-8.1,1.55c-7.45,0-11.9-4.95-11.9-12.25s4.3-13,11.35-13c7.95,0,10,6.9,10,11.35a10.73,10.73,0,0,1-.15,2Zm12.9-3.15c.05-2.75-1.15-7.1-6.1-7.1-4.5,0-6.4,4.05-6.75,7.1Z"/><path class="cls-10" d="M391.9,491.43c0-2.55-.1-4.55-.2-6.55h3.85l.2,3.95h.15a8.36,8.36,0,0,1,7.65-4.45,7.14,7.14,0,0,1,6.8,4.85h.1a9.55,9.55,0,0,1,2.75-3.15,8.12,8.12,0,0,1,5.3-1.7c3.25,0,8,2.1,8,10.5v14.2h-4.3V495.43c0-4.7-1.75-7.45-5.25-7.45a5.78,5.78,0,0,0-5.25,3.95,7.51,7.51,0,0,0-.35,2.2v14.95h-4.3v-14.5c0-3.85-1.7-6.6-5.05-6.6-2.7,0-4.75,2.2-5.45,4.4a5.88,5.88,0,0,0-.35,2.15v14.55h-4.3Z"/><path class="cls-10" d="M453.16,478.08a2.63,2.63,0,0,1-2.8,2.7,2.59,2.59,0,0,1-2.65-2.7,2.68,2.68,0,0,1,2.75-2.75A2.64,2.64,0,0,1,453.16,478.08Zm-4.9,31v-24.2h4.4v24.2Z"/><path class="cls-10" d="M460,492.78c0-3.1-.1-5.6-.2-7.9h3.9l.25,4.15h.1a9.42,9.42,0,0,1,8.6-4.65c5.9,0,10.3,4.95,10.3,12.25,0,8.7-5.35,13-11.05,13a8.49,8.49,0,0,1-7.45-3.8h-.1V519H460Zm4.35,6.45a6.79,6.79,0,0,0,6.8,6.95c4.65,0,7.35-3.8,7.35-9.35,0-4.8-2.55-8.95-7.2-8.95a6.93,6.93,0,0,0-6.65,5.4,7.13,7.13,0,0,0-.3,1.75Z"/><path class="cls-10" d="M487.81,504.63a12.43,12.43,0,0,0,5.85,1.7c3.15,0,4.65-1.55,4.65-3.6s-1.25-3.2-4.45-4.4c-4.4-1.6-6.45-3.95-6.45-6.85,0-3.9,3.2-7.1,8.35-7.1a11.23,11.23,0,0,1,5.9,1.5l-1.05,3.2a9.38,9.38,0,0,0-4.95-1.45c-2.6,0-4,1.5-4,3.3,0,2,1.4,2.9,4.55,4.15,4.15,1.55,6.35,3.65,6.35,7.25,0,4.3-3.35,7.3-9,7.3a13.8,13.8,0,0,1-6.8-1.7Z"/><path class="cls-10" d="M528.46,502.43c0,2.55,0,4.75.2,6.65h-3.9l-.25-3.95h-.1a9,9,0,0,1-8,4.5c-3.8,0-8.35-2.15-8.35-10.6V484.88h4.4v13.35c0,4.6,1.45,7.75,5.4,7.75a6.33,6.33,0,0,0,5.8-4.05,6,6,0,0,0,.4-2.25v-14.8h4.4Z"/><path class="cls-10" d="M535.76,491.43c0-2.55-.1-4.55-.2-6.55h3.85l.2,3.95h.15a8.36,8.36,0,0,1,7.65-4.45,7.14,7.14,0,0,1,6.8,4.85h.1a9.55,9.55,0,0,1,2.75-3.15,8.12,8.12,0,0,1,5.3-1.7c3.25,0,8,2.1,8,10.5v14.2h-4.3V495.43c0-4.7-1.75-7.45-5.25-7.45a5.78,5.78,0,0,0-5.25,3.95,7.51,7.51,0,0,0-.35,2.2v14.95h-4.3v-14.5c0-3.85-1.7-6.6-5-6.6-2.7,0-4.75,2.2-5.45,4.4a5.88,5.88,0,0,0-.35,2.15v14.55h-4.3Z"/><path class="cls-10" d="M613,473.58v29.25c0,2.15.1,4.6.2,6.25h-3.9l-.2-4.2h-.15a8.74,8.74,0,0,1-8.15,4.75c-5.85,0-10.4-4.95-10.4-12.3,0-8.05,5-12.95,10.85-12.95,3.75,0,6.2,1.75,7.3,3.65h.1V473.58Zm-4.35,21.15a7.77,7.77,0,0,0-.2-1.85,6.48,6.48,0,0,0-6.35-5.05c-4.55,0-7.25,4-7.25,9.3,0,4.9,2.45,8.95,7.15,8.95a6.67,6.67,0,0,0,6.45-5.25,7.64,7.64,0,0,0,.2-1.9Z"/><path class="cls-10" d="M642.22,496.78c0,9-6.25,12.85-12.05,12.85-6.5,0-11.6-4.8-11.6-12.45,0-8.05,5.35-12.8,12-12.8C637.52,484.38,642.22,489.43,642.22,496.78Zm-19.15.25c0,5.3,3,9.3,7.3,9.3s7.35-3.95,7.35-9.4c0-4.1-2.05-9.25-7.25-9.25S623.07,492.48,623.07,497Z"/><path class="cls-10" d="M647.77,473.58h4.4v35.5h-4.4Z"/><path class="cls-10" d="M681.47,496.78c0,9-6.25,12.85-12.05,12.85-6.5,0-11.6-4.8-11.6-12.45,0-8.05,5.35-12.8,12-12.8C676.77,484.38,681.47,489.43,681.47,496.78Zm-19.15.25c0,5.3,3,9.3,7.3,9.3s7.35-3.95,7.35-9.4c0-4.1-2.05-9.25-7.25-9.25S662.32,492.48,662.32,497Z"/><path class="cls-10" d="M687,492.43c0-2.85,0-5.3-.2-7.55h3.85l.2,4.8H691a7.32,7.32,0,0,1,6.75-5.3,9,9,0,0,1,1.2.1v4.15a6.85,6.85,0,0,0-1.5-.1c-3.1,0-5.3,2.3-5.9,5.6a13.16,13.16,0,0,0-.15,2.05v12.9H687Z"/><path class="cls-10" d="M717.43,504.63a12.43,12.43,0,0,0,5.85,1.7c3.15,0,4.65-1.55,4.65-3.6s-1.25-3.2-4.45-4.4c-4.4-1.6-6.45-3.95-6.45-6.85,0-3.9,3.2-7.1,8.35-7.1a11.23,11.23,0,0,1,5.9,1.5l-1,3.2a9.38,9.38,0,0,0-5-1.45c-2.6,0-4,1.5-4,3.3,0,2,1.4,2.9,4.55,4.15,4.15,1.55,6.35,3.65,6.35,7.25,0,4.3-3.35,7.3-9,7.3a13.8,13.8,0,0,1-6.8-1.7Z"/><path class="cls-10" d="M742.73,478.08a2.63,2.63,0,0,1-2.8,2.7,2.59,2.59,0,0,1-2.65-2.7,2.68,2.68,0,0,1,2.75-2.75A2.64,2.64,0,0,1,742.73,478.08Zm-4.9,31v-24.2h4.4v24.2Z"/><path class="cls-10" d="M754.83,479.08v5.8h6.3v3.35h-6.3v13c0,3,.85,4.7,3.3,4.7a8.22,8.22,0,0,0,2.55-.3l.2,3.35a12,12,0,0,1-3.9.6,6.28,6.28,0,0,1-4.75-1.85c-1.2-1.35-1.7-3.5-1.7-6.35v-13.2h-3.75v-3.35h3.75v-4.5Z"/><path class="cls-10" d="M797.74,503.28a40.6,40.6,0,0,0,.35,5.8h-4l-.35-3.05h-.15a9,9,0,0,1-7.4,3.6c-4.9,0-7.4-3.45-7.4-6.95,0-5.85,5.2-9.05,14.55-9v-.5c0-1.95-.55-5.6-5.5-5.55a11.66,11.66,0,0,0-6.35,1.8l-1-2.95a15.67,15.67,0,0,1,8-2.1c7.4,0,9.2,5.05,9.2,9.85Zm-4.25-6.55c-4.8-.1-10.25.75-10.25,5.45a3.85,3.85,0,0,0,4.1,4.2,6.11,6.11,0,0,0,5.95-4.05,5,5,0,0,0,.2-1.4Z"/><path class="cls-10" d="M804.84,491.43c0-2.55-.1-4.55-.2-6.55h3.85l.2,3.95h.15a8.36,8.36,0,0,1,7.65-4.45,7.14,7.14,0,0,1,6.8,4.85h.1a9.55,9.55,0,0,1,2.75-3.15,8.12,8.12,0,0,1,5.3-1.7c3.25,0,8,2.1,8,10.5v14.2h-4.3V495.43c0-4.7-1.75-7.45-5.25-7.45a5.78,5.78,0,0,0-5.25,3.95,7.51,7.51,0,0,0-.35,2.2v14.95H820v-14.5c0-3.85-1.7-6.6-5-6.6-2.7,0-4.75,2.2-5.45,4.4a5.88,5.88,0,0,0-.35,2.15v14.55h-4.3Z"/><path class="cls-10" d="M849,497.78c.1,6,3.85,8.4,8.3,8.4a15.74,15.74,0,0,0,6.7-1.25l.8,3.15a19.71,19.71,0,0,1-8.1,1.55c-7.45,0-11.9-4.95-11.9-12.25s4.3-13,11.35-13c8,0,10,6.9,10,11.35a10.73,10.73,0,0,1-.15,2Zm12.9-3.15c.05-2.75-1.15-7.1-6.1-7.1-4.5,0-6.4,4.05-6.75,7.1Z"/><path class="cls-10" d="M876.89,479.08v5.8h6.3v3.35h-6.3v13c0,3,.85,4.7,3.3,4.7a8.22,8.22,0,0,0,2.55-.3l.2,3.35a12,12,0,0,1-3.9.6,6.28,6.28,0,0,1-4.75-1.85c-1.2-1.35-1.7-3.5-1.7-6.35v-13.2h-3.75v-3.35h3.75v-4.5Z"/><path class="cls-10" d="M885.14,515.28a73.84,73.84,0,0,0,3-12l4.9-.5a63.9,63.9,0,0,1-4.8,12.15Z"/><path class="cls-10" d="M930.25,508.23a17,17,0,0,1-7,1.4c-7.3,0-12-4.95-12-12.35s5.1-12.9,13-12.9a13.85,13.85,0,0,1,6.1,1.3l-1,3.35a10.77,10.77,0,0,0-5.1-1.15c-5.55,0-8.55,4.15-8.55,9.15,0,5.6,3.6,9.05,8.4,9.05a12.6,12.6,0,0,0,5.4-1.15Z"/><path class="cls-10" d="M957,496.78c0,9-6.26,12.85-12,12.85-6.51,0-11.61-4.8-11.61-12.45,0-8.05,5.35-12.8,12-12.8C952.31,484.38,957,489.43,957,496.78Zm-19.16.25c0,5.3,3,9.3,7.31,9.3s7.35-3.95,7.35-9.4c0-4.1-2-9.25-7.26-9.25S937.85,492.48,937.85,497Z"/><path class="cls-10" d="M962.55,491.43c0-2.55,0-4.55-.2-6.55h3.9l.25,4h.1a9,9,0,0,1,8-4.5c3.35,0,8.55,2,8.55,10.3v14.4h-4.4V495.13c0-3.9-1.45-7.15-5.6-7.15a6.42,6.42,0,0,0-6.2,6.55v14.55h-4.41Z"/><path class="cls-10" d="M1000.5,494v3.2H988.15V494Z"/><path class="cls-10" d="M300.05,564.63a12.43,12.43,0,0,0,5.85,1.7c3.15,0,4.65-1.55,4.65-3.6s-1.25-3.2-4.45-4.4c-4.4-1.6-6.45-4-6.45-6.85,0-3.9,3.2-7.1,8.35-7.1a11.23,11.23,0,0,1,5.9,1.5l-1,3.2a9.38,9.38,0,0,0-5-1.45c-2.6,0-4,1.5-4,3.3,0,2,1.4,2.9,4.55,4.15,4.15,1.55,6.35,3.65,6.35,7.25,0,4.3-3.35,7.3-9,7.3a13.8,13.8,0,0,1-6.8-1.7Z"/><path class="cls-10" d="M322.9,557.78c.1,6,3.85,8.4,8.3,8.4a15.74,15.74,0,0,0,6.7-1.25l.8,3.15a19.71,19.71,0,0,1-8.1,1.55c-7.45,0-11.9-5-11.9-12.25s4.3-13,11.35-13c7.95,0,10,6.9,10,11.35a10.73,10.73,0,0,1-.15,2Zm12.9-3.15c.05-2.75-1.15-7.1-6.1-7.1-4.5,0-6.4,4.05-6.75,7.1Z"/><path class="cls-10" d="M362.75,568.23a17,17,0,0,1-6.95,1.4c-7.3,0-12.05-5-12.05-12.35s5.1-12.9,13-12.9a13.85,13.85,0,0,1,6.1,1.3l-1,3.35a10.77,10.77,0,0,0-5.1-1.15c-5.55,0-8.55,4.15-8.55,9.15,0,5.6,3.6,9.05,8.4,9.05a12.6,12.6,0,0,0,5.4-1.15Z"/><path class="cls-10" d="M373.85,539.08v5.8h6.3v3.35h-6.3v13c0,3,.85,4.7,3.3,4.7a8.22,8.22,0,0,0,2.55-.3l.2,3.35a12,12,0,0,1-3.9.6,6.28,6.28,0,0,1-4.75-1.85c-1.2-1.35-1.7-3.5-1.7-6.35v-13.2H365.8v-3.35h3.75v-4.5Z"/><path class="cls-10" d="M387.25,557.78c.1,6,3.85,8.4,8.3,8.4a15.74,15.74,0,0,0,6.7-1.25l.8,3.15a19.71,19.71,0,0,1-8.1,1.55c-7.45,0-11.9-5-11.9-12.25s4.3-13,11.35-13c8,0,10,6.9,10,11.35a10.73,10.73,0,0,1-.15,2Zm12.9-3.15c.05-2.75-1.15-7.1-6.1-7.1-4.5,0-6.4,4.05-6.75,7.1Z"/><path class="cls-10" d="M415.15,539.08v5.8h6.3v3.35h-6.3v13c0,3,.85,4.7,3.3,4.7a8.22,8.22,0,0,0,2.55-.3l.2,3.35a12,12,0,0,1-3.9.6,6.28,6.28,0,0,1-4.75-1.85c-1.2-1.35-1.7-3.5-1.7-6.35v-13.2H407.1v-3.35h3.75v-4.5Z"/><path class="cls-10" d="M446.65,562.43c0,2.55.05,4.75.2,6.65H443l-.25-4h-.1a9,9,0,0,1-8,4.5c-3.8,0-8.35-2.15-8.35-10.6V544.88h4.4v13.35c0,4.6,1.45,7.75,5.4,7.75a6.33,6.33,0,0,0,5.8-4.05,6,6,0,0,0,.4-2.25v-14.8h4.4Z"/><path class="cls-10" d="M456.4,557.78c.1,6,3.85,8.4,8.3,8.4a15.74,15.74,0,0,0,6.7-1.25l.8,3.15a19.71,19.71,0,0,1-8.1,1.55c-7.45,0-11.9-5-11.9-12.25s4.3-13,11.35-13c7.95,0,10,6.9,10,11.35a10.73,10.73,0,0,1-.15,2Zm12.9-3.15c.05-2.75-1.15-7.1-6.1-7.1-4.5,0-6.4,4.05-6.75,7.1Z"/><path class="cls-10" d="M479,552.43c0-2.85-.05-5.3-.2-7.55h3.85l.2,4.8H483a7.32,7.32,0,0,1,6.75-5.3,9,9,0,0,1,1.2.1v4.15a6.85,6.85,0,0,0-1.5-.1c-3.1,0-5.3,2.3-5.9,5.6a13.16,13.16,0,0,0-.15,2v12.9H479Z"/><path class="cls-10" d="M523,563.28a40.6,40.6,0,0,0,.35,5.8h-3.95L519,566h-.15a9,9,0,0,1-7.4,3.6c-4.9,0-7.4-3.45-7.4-7,0-5.85,5.2-9,14.55-9v-.5c0-1.95-.55-5.6-5.5-5.55a11.66,11.66,0,0,0-6.35,1.8l-1-2.95a15.67,15.67,0,0,1,8-2.1c7.4,0,9.2,5,9.2,9.85Zm-4.25-6.55c-4.8-.1-10.25.75-10.25,5.45a3.85,3.85,0,0,0,4.1,4.2,6.11,6.11,0,0,0,6-4,5,5,0,0,0,.2-1.4Z"/><path class="cls-10" d="M550.9,533.58v29.25c0,2.15.1,4.6.2,6.25h-3.9l-.2-4.2h-.15a8.74,8.74,0,0,1-8.15,4.75c-5.85,0-10.4-5-10.4-12.3,0-8.05,5-13,10.85-13,3.75,0,6.2,1.75,7.3,3.65h.1V533.58Zm-4.35,21.15a7.77,7.77,0,0,0-.2-1.85,6.48,6.48,0,0,0-6.35-5c-4.55,0-7.25,4-7.25,9.3,0,4.9,2.45,9,7.15,9a6.67,6.67,0,0,0,6.45-5.25,7.64,7.64,0,0,0,.2-1.9Z"/><path class="cls-10" d="M563.15,538.08a2.63,2.63,0,0,1-2.8,2.7,2.59,2.59,0,0,1-2.65-2.7,2.68,2.68,0,0,1,2.75-2.75A2.64,2.64,0,0,1,563.15,538.08Zm-4.9,31v-24.2h4.4v24.2Z"/><path class="cls-10" d="M570,552.78c0-3.1-.1-5.6-.2-7.9h3.9l.25,4.15h.1a9.42,9.42,0,0,1,8.6-4.65c5.9,0,10.3,5,10.3,12.25,0,8.7-5.35,13-11,13a8.49,8.49,0,0,1-7.45-3.8h-.1V579H570Zm4.35,6.45a6.79,6.79,0,0,0,6.8,6.95c4.65,0,7.35-3.8,7.35-9.35,0-4.8-2.55-9-7.2-9a6.93,6.93,0,0,0-6.65,5.4,7.13,7.13,0,0,0-.3,1.75Z"/><path class="cls-10" d="M603.3,538.08a2.63,2.63,0,0,1-2.8,2.7,2.59,2.59,0,0,1-2.65-2.7,2.68,2.68,0,0,1,2.75-2.75A2.64,2.64,0,0,1,603.3,538.08Zm-4.9,31v-24.2h4.4v24.2Z"/><path class="cls-10" d="M609.5,564.63a12.43,12.43,0,0,0,5.85,1.7c3.15,0,4.65-1.55,4.65-3.6s-1.25-3.2-4.45-4.4c-4.4-1.6-6.45-4-6.45-6.85,0-3.9,3.2-7.1,8.35-7.1a11.23,11.23,0,0,1,5.9,1.5l-1.05,3.2a9.38,9.38,0,0,0-4.95-1.45c-2.6,0-4,1.5-4,3.3,0,2,1.4,2.9,4.55,4.15,4.15,1.55,6.35,3.65,6.35,7.25,0,4.3-3.35,7.3-9,7.3a13.8,13.8,0,0,1-6.8-1.7Z"/><path class="cls-10" d="M647.15,568.23a17,17,0,0,1-6.95,1.4c-7.3,0-12.05-5-12.05-12.35s5.1-12.9,13-12.9a13.85,13.85,0,0,1,6.1,1.3l-1,3.35a10.77,10.77,0,0,0-5.1-1.15c-5.55,0-8.55,4.15-8.55,9.15,0,5.6,3.6,9.05,8.4,9.05a12.6,12.6,0,0,0,5.4-1.15Z"/><path class="cls-10" d="M657.2,538.08a2.63,2.63,0,0,1-2.81,2.7,2.58,2.58,0,0,1-2.64-2.7,2.67,2.67,0,0,1,2.75-2.75A2.65,2.65,0,0,1,657.2,538.08Zm-4.91,31v-24.2h4.41v24.2Z"/><path class="cls-10" d="M664,551.43c0-2.55,0-4.55-.2-6.55h3.9l.25,4h.1a9,9,0,0,1,8-4.5c3.35,0,8.56,2,8.56,10.3v14.4h-4.4v-14c0-3.9-1.45-7.15-5.61-7.15a6.45,6.45,0,0,0-6.2,6.55v14.55H664Z"/><path class="cls-10" d="M712.45,565.53c0,5.6-1.16,9-3.45,11.1s-5.81,2.9-8.86,2.9a15.62,15.62,0,0,1-8-2l1.1-3.4a13.17,13.17,0,0,0,7.1,2c4.5,0,7.8-2.35,7.8-8.5v-2.65H708a8.6,8.6,0,0,1-7.71,4.05c-6,0-10.3-5.1-10.3-11.8,0-8.2,5.35-12.8,11-12.8a8.11,8.11,0,0,1,7.56,4.15h.09l.16-3.65h3.9c-.15,1.7-.2,3.7-.2,6.6ZM708,554.43a5.53,5.53,0,0,0-.25-1.95,6.27,6.27,0,0,0-6.15-4.7c-4.2,0-7.2,3.55-7.2,9.15,0,4.75,2.45,8.7,7.15,8.7a6.36,6.36,0,0,0,6.11-4.5,7.64,7.64,0,0,0,.34-2.35Z"/><path class="cls-10" d="M732.74,557.78c.1,6,3.85,8.4,8.3,8.4a15.74,15.74,0,0,0,6.7-1.25l.8,3.15a19.71,19.71,0,0,1-8.1,1.55c-7.45,0-11.9-5-11.9-12.25s4.3-13,11.35-13c8,0,10,6.9,10,11.35a10.73,10.73,0,0,1-.15,2Zm12.9-3.15c.05-2.75-1.15-7.1-6.1-7.1-4.5,0-6.4,4.05-6.75,7.1Z"/><path class="cls-10" d="M755.34,533.58h4.4v35.5h-4.4Z"/><path class="cls-10" d="M772,538.08a2.63,2.63,0,0,1-2.8,2.7,2.59,2.59,0,0,1-2.65-2.7,2.68,2.68,0,0,1,2.75-2.75A2.64,2.64,0,0,1,772,538.08Zm-4.9,31v-24.2h4.4v24.2Z"/><path class="cls-10" d="M784.14,539.08v5.8h6.3v3.35h-6.3v13c0,3,.85,4.7,3.3,4.7a8.22,8.22,0,0,0,2.55-.3l.2,3.35a12,12,0,0,1-3.9.6,6.28,6.28,0,0,1-4.75-1.85c-1.2-1.35-1.7-3.5-1.7-6.35v-13.2h-3.75v-3.35h3.75v-4.5Z"/><path class="cls-10" d="M792.39,575.28a73.84,73.84,0,0,0,3-12l4.9-.5a63.9,63.9,0,0,1-4.8,12.15Z"/><path class="cls-10" d="M815.59,564.63a12.43,12.43,0,0,0,5.85,1.7c3.15,0,4.65-1.55,4.65-3.6s-1.25-3.2-4.45-4.4c-4.4-1.6-6.45-4-6.45-6.85,0-3.9,3.2-7.1,8.35-7.1a11.23,11.23,0,0,1,5.9,1.5l-1.05,3.2a9.38,9.38,0,0,0-4.95-1.45c-2.6,0-4,1.5-4,3.3,0,2,1.4,2.9,4.55,4.15,4.15,1.55,6.35,3.65,6.35,7.25,0,4.3-3.35,7.3-9,7.3a13.8,13.8,0,0,1-6.8-1.7Z"/><path class="cls-10" d="M838.44,557.78c.1,6,3.85,8.4,8.3,8.4a15.74,15.74,0,0,0,6.7-1.25l.8,3.15a19.71,19.71,0,0,1-8.1,1.55c-7.45,0-11.9-5-11.9-12.25s4.3-13,11.35-13c7.95,0,10,6.9,10,11.35a10.73,10.73,0,0,1-.15,2Zm12.9-3.15c0-2.75-1.15-7.1-6.1-7.1-4.5,0-6.4,4.05-6.75,7.1Z"/><path class="cls-10" d="M881.89,533.58v29.25c0,2.15.1,4.6.2,6.25h-3.9l-.2-4.2h-.15a8.74,8.74,0,0,1-8.15,4.75c-5.85,0-10.4-5-10.4-12.3,0-8.05,5-13,10.85-13,3.75,0,6.2,1.75,7.3,3.65h.1V533.58Zm-4.35,21.15a7.77,7.77,0,0,0-.2-1.85,6.48,6.48,0,0,0-6.35-5c-4.55,0-7.25,4-7.25,9.3,0,4.9,2.45,9,7.15,9a6.67,6.67,0,0,0,6.45-5.25,7.64,7.64,0,0,0,.2-1.9Z"/><path class="cls-10" d="M920.69,533.58v29.25c0,2.15.1,4.6.2,6.25H917l-.2-4.2h-.15a8.74,8.74,0,0,1-8.15,4.75c-5.85,0-10.4-5-10.4-12.3-.05-8.05,5-13,10.85-13,3.75,0,6.2,1.75,7.3,3.65h.1V533.58Zm-4.35,21.15a7.77,7.77,0,0,0-.2-1.85,6.48,6.48,0,0,0-6.35-5c-4.55,0-7.25,4-7.25,9.3,0,4.9,2.45,9,7.15,9a6.67,6.67,0,0,0,6.45-5.25,7.64,7.64,0,0,0,.2-1.9Z"/><path class="cls-10" d="M932.94,538.08a2.63,2.63,0,0,1-2.8,2.7,2.59,2.59,0,0,1-2.65-2.7,2.68,2.68,0,0,1,2.75-2.75A2.64,2.64,0,0,1,932.94,538.08Zm-4.9,31v-24.2h4.4v24.2Z"/><path class="cls-10" d="M956.74,563.28a40.6,40.6,0,0,0,.35,5.8h-4l-.35-3.05h-.15a9,9,0,0,1-7.4,3.6c-4.9,0-7.4-3.45-7.4-7,0-5.85,5.2-9,14.55-9v-.5c0-1.95-.55-5.6-5.5-5.55a11.66,11.66,0,0,0-6.35,1.8l-1-2.95a15.67,15.67,0,0,1,8-2.1c7.4,0,9.2,5,9.2,9.85Zm-4.25-6.55c-4.8-.1-10.25.75-10.25,5.45a3.85,3.85,0,0,0,4.1,4.2,6.11,6.11,0,0,0,5.95-4,5,5,0,0,0,.2-1.4Z"/><path class="cls-10" d="M963.84,551.43c0-2.55-.1-4.55-.2-6.55h3.85l.2,4h.15a8.36,8.36,0,0,1,7.65-4.45,7.14,7.14,0,0,1,6.8,4.85h.1a9.55,9.55,0,0,1,2.75-3.15,8.12,8.12,0,0,1,5.3-1.7c3.25,0,8,2.1,8,10.5v14.2h-4.3V555.43c0-4.7-1.75-7.45-5.25-7.45a5.78,5.78,0,0,0-5.25,3.95,7.51,7.51,0,0,0-.35,2.2v15H979v-14.5c0-3.85-1.7-6.6-5-6.6-2.7,0-4.75,2.2-5.45,4.4a5.88,5.88,0,0,0-.35,2.15v14.55h-4.3Z"/><path class="cls-10" d="M300.65,611.43c0-2.55,0-4.55-.2-6.55h3.9l.25,4h.1a9,9,0,0,1,8-4.5c3.35,0,8.55,2,8.55,10.3v14.4h-4.4v-14c0-3.9-1.45-7.15-5.6-7.15a6.45,6.45,0,0,0-6.2,6.55v14.55h-4.4Z"/><path class="cls-10" d="M350.3,616.78c0,9-6.25,12.85-12.05,12.85-6.5,0-11.6-4.8-11.6-12.45,0-8,5.35-12.8,12-12.8C345.6,604.38,350.3,609.43,350.3,616.78Zm-19.15.25c0,5.3,3,9.3,7.3,9.3s7.35-4,7.35-9.4c0-4.1-2.05-9.25-7.25-9.25S331.15,612.48,331.15,617Z"/><path class="cls-10" d="M355.85,611.43c0-2.55-.05-4.55-.2-6.55h3.9l.25,4h.1a9,9,0,0,1,8-4.5c3.35,0,8.55,2,8.55,10.3v14.4h-4.4v-14c0-3.9-1.45-7.15-5.6-7.15a6.45,6.45,0,0,0-6.2,6.55v14.55h-4.4Z"/><path class="cls-10" d="M403.85,622.43c0,2.55,0,4.75.2,6.65h-3.9l-.25-4h-.1a9,9,0,0,1-8,4.5c-3.8,0-8.35-2.15-8.35-10.6V604.88h4.4v13.35c0,4.6,1.45,7.75,5.4,7.75a6.33,6.33,0,0,0,5.8-4.05,6,6,0,0,0,.4-2.25v-14.8h4.4Z"/><path class="cls-10" d="M411.15,611.43c0-2.55-.1-4.55-.2-6.55h3.85l.2,4h.15a8.36,8.36,0,0,1,7.65-4.45,7.14,7.14,0,0,1,6.8,4.85h.1a9.55,9.55,0,0,1,2.75-3.15,8.12,8.12,0,0,1,5.3-1.7c3.25,0,8,2.1,8,10.5v14.2h-4.3V615.43c0-4.7-1.75-7.45-5.25-7.45a5.78,5.78,0,0,0-5.25,3.95,7.51,7.51,0,0,0-.35,2.2v15h-4.3v-14.5c0-3.85-1.7-6.6-5.05-6.6-2.7,0-4.75,2.2-5.45,4.4a5.88,5.88,0,0,0-.35,2.15v14.55h-4.3Z"/><path class="cls-10" d="M452.85,611.43c0-2.55-.1-4.55-.2-6.55h3.85l.2,4h.15a8.36,8.36,0,0,1,7.65-4.45,7.14,7.14,0,0,1,6.8,4.85h.1a9.55,9.55,0,0,1,2.75-3.15,8.12,8.12,0,0,1,5.3-1.7c3.25,0,8,2.1,8,10.5v14.2h-4.3V615.43c0-4.7-1.75-7.45-5.25-7.45a5.78,5.78,0,0,0-5.25,3.95,7.51,7.51,0,0,0-.35,2.2v15H468v-14.5c0-3.85-1.7-6.6-5.05-6.6-2.7,0-4.75,2.2-5.45,4.4a5.88,5.88,0,0,0-.35,2.15v14.55h-4.3Z"/><path class="cls-10" d="M495.5,604.88l5.25,14.3c.6,1.6,1.2,3.5,1.6,5h.1c.45-1.45.95-3.3,1.55-5l4.8-14.2h4.65l-6.6,17.25c-3.15,8.3-5.3,12.5-8.3,15.15a12.48,12.48,0,0,1-5.4,2.8l-1.1-3.65a11.64,11.64,0,0,0,3.85-2.15,13.9,13.9,0,0,0,3.7-4.9,3.16,3.16,0,0,0,.35-1,3,3,0,0,0-.35-1.15l-8.9-22.3Z"/><path class="cls-10" d="M552.67,611.43c0-2.55,0-4.55-.2-6.55h3.9l.25,4h.1a9,9,0,0,1,8-4.5c3.35,0,8.55,2,8.55,10.3v14.4h-4.4v-14c0-3.9-1.45-7.15-5.6-7.15a6.45,6.45,0,0,0-6.2,6.55v14.55h-4.4Z"/><path class="cls-10" d="M585.32,598.08a2.63,2.63,0,0,1-2.8,2.7,2.59,2.59,0,0,1-2.65-2.7,2.68,2.68,0,0,1,2.75-2.75A2.64,2.64,0,0,1,585.32,598.08Zm-4.9,31v-24.2h4.4v24.2Z"/><path class="cls-10" d="M592.12,593.58h4.35v15.2h.1c1.55-2.7,4.35-4.4,8.25-4.4,6,0,10.25,5,10.25,12.3,0,8.65-5.5,13-10.9,13a8.79,8.79,0,0,1-8.15-4.5h-.1l-.25,4h-3.75c.1-1.65.2-4.1.2-6.25Zm4.35,25.8a5.62,5.62,0,0,0,.2,1.6,6.75,6.75,0,0,0,6.6,5.15c4.65,0,7.35-3.75,7.35-9.3,0-4.85-2.5-9-7.25-9a7.06,7.06,0,0,0-6.65,5.4,6.9,6.9,0,0,0-.25,1.85Z"/><path class="cls-10" d="M620.57,593.58H625v15.15h.1a8.28,8.28,0,0,1,3.15-3.15,9,9,0,0,1,4.5-1.2c3.25,0,8.45,2,8.45,10.3v14.4h-4.4v-13.9c0-3.9-1.45-7.15-5.6-7.15a6.39,6.39,0,0,0-5.9,4.35,5.62,5.62,0,0,0-.3,2.1v14.6h-4.4Z"/><path class="cls-10" d="M686,617.78c.1,6,3.85,8.4,8.3,8.4a15.74,15.74,0,0,0,6.7-1.25l.8,3.15a19.71,19.71,0,0,1-8.1,1.55c-7.45,0-11.9-5-11.9-12.25s4.3-13,11.35-13c8,0,10,6.9,10,11.35a10.73,10.73,0,0,1-.15,2Zm12.9-3.15c.05-2.75-1.15-7.1-6.1-7.1-4.5,0-6.4,4.05-6.75,7.1Z"/><path class="cls-10" d="M728.84,622.43c0,2.55,0,4.75.2,6.65h-3.9l-.25-4h-.1a9,9,0,0,1-8,4.5c-3.8,0-8.35-2.15-8.35-10.6V604.88h4.4v13.35c0,4.6,1.45,7.75,5.4,7.75a6.33,6.33,0,0,0,5.8-4.05,6,6,0,0,0,.4-2.25v-14.8h4.4Z"/><path class="cls-10" d="M741,598.08a2.63,2.63,0,0,1-2.8,2.7,2.59,2.59,0,0,1-2.65-2.7,2.68,2.68,0,0,1,2.75-2.75A2.64,2.64,0,0,1,741,598.08Zm-4.9,31v-24.2h4.4v24.2Z"/><path class="cls-10" d="M747.23,624.63a12.43,12.43,0,0,0,5.85,1.7c3.16,0,4.66-1.55,4.66-3.6s-1.25-3.2-4.45-4.4c-4.41-1.6-6.46-4-6.46-6.85,0-3.9,3.21-7.1,8.36-7.1a11.23,11.23,0,0,1,5.9,1.5l-1.05,3.2a9.42,9.42,0,0,0-5-1.45c-2.59,0-4,1.5-4,3.3,0,2,1.41,2.9,4.56,4.15,4.15,1.55,6.35,3.65,6.35,7.25,0,4.3-3.35,7.3-9,7.3a13.81,13.81,0,0,1-6.81-1.7Z"/><path class="cls-10" d="M767.63,611.43c0-2.55-.1-4.55-.2-6.55h3.86l.19,4h.15a8.39,8.39,0,0,1,7.66-4.45,7.14,7.14,0,0,1,6.8,4.85h.1a9.55,9.55,0,0,1,2.75-3.15,8.12,8.12,0,0,1,5.3-1.7c3.25,0,8,2.1,8,10.5v14.2h-4.3V615.43c0-4.7-1.75-7.45-5.25-7.45a5.78,5.78,0,0,0-5.25,3.95,7.51,7.51,0,0,0-.35,2.2v15h-4.3v-14.5c0-3.85-1.71-6.6-5-6.6-2.7,0-4.75,2.2-5.45,4.4a5.88,5.88,0,0,0-.36,2.15v14.55h-4.3Z"/><path class="cls-10" d="M831.24,616.78c0,9-6.25,12.85-12,12.85-6.51,0-11.61-4.8-11.61-12.45,0-8,5.35-12.8,12-12.8C826.54,604.38,831.24,609.43,831.24,616.78Zm-19.16.25c0,5.3,3,9.3,7.31,9.3s7.35-4,7.35-9.4c0-4.1-2-9.25-7.25-9.25S812.08,612.48,812.08,617Z"/><path class="cls-10" d="M857.64,593.58v29.25c0,2.15.1,4.6.2,6.25h-3.9l-.2-4.2h-.15a8.74,8.74,0,0,1-8.15,4.75c-5.86,0-10.4-5-10.4-12.3,0-8.05,5-13,10.85-13,3.75,0,6.2,1.75,7.3,3.65h.1V593.58Zm-4.35,21.15a7.77,7.77,0,0,0-.2-1.85,6.48,6.48,0,0,0-6.35-5c-4.55,0-7.25,4-7.25,9.3,0,4.9,2.45,9,7.15,9a6.67,6.67,0,0,0,6.45-5.25,7.64,7.64,0,0,0,.2-1.9Z"/><path class="cls-10" d="M905.5,599.08v5.8h6.3v3.35h-6.3v13c0,3,.85,4.7,3.3,4.7a8.22,8.22,0,0,0,2.55-.3l.2,3.35a12,12,0,0,1-3.9.6,6.28,6.28,0,0,1-4.75-1.85c-1.2-1.35-1.7-3.5-1.7-6.35v-13.2h-3.75v-3.35h3.75v-4.5Z"/><path class="cls-10" d="M921.65,598.08a2.63,2.63,0,0,1-2.8,2.7,2.59,2.59,0,0,1-2.65-2.7,2.68,2.68,0,0,1,2.75-2.75A2.64,2.64,0,0,1,921.65,598.08Zm-4.9,31v-24.2h4.4v24.2Z"/><path class="cls-10" d="M928.45,611.43c0-2.55-.05-4.55-.2-6.55h3.9l.25,4h.1a9,9,0,0,1,8-4.5c3.35,0,8.55,2,8.55,10.3v14.4h-4.4v-14c0-3.9-1.45-7.15-5.6-7.15a6.45,6.45,0,0,0-6.2,6.55v14.55h-4.4Z"/><path class="cls-10" d="M973.45,628.23a17,17,0,0,1-7,1.4c-7.3,0-12-5-12-12.35s5.1-12.9,13-12.9a13.85,13.85,0,0,1,6.1,1.3l-1,3.35a10.77,10.77,0,0,0-5.1-1.15c-5.55,0-8.55,4.15-8.55,9.15,0,5.6,3.6,9.05,8.4,9.05a12.6,12.6,0,0,0,5.4-1.15Z"/><path class="cls-10" d="M983.5,598.08a2.63,2.63,0,0,1-2.8,2.7,2.59,2.59,0,0,1-2.65-2.7,2.68,2.68,0,0,1,2.75-2.75A2.64,2.64,0,0,1,983.5,598.08Zm-4.9,31v-24.2H983v24.2Z"/><path class="cls-10" d="M1000.5,614v3.2H988.15V614Z"/><path class="cls-10" d="M321.5,653.58v29.25c0,2.15.1,4.6.2,6.25h-3.9l-.2-4.2h-.15a8.74,8.74,0,0,1-8.15,4.75c-5.85,0-10.4-5-10.4-12.3,0-8.05,5-13,10.85-13,3.75,0,6.2,1.75,7.3,3.65h.1V653.58Zm-4.35,21.15a7.77,7.77,0,0,0-.2-1.85,6.48,6.48,0,0,0-6.35-5c-4.55,0-7.25,4-7.25,9.3,0,4.9,2.45,9,7.15,9a6.67,6.67,0,0,0,6.45-5.25,7.64,7.64,0,0,0,.2-1.9Z"/><path class="cls-10" d="M349.1,682.43c0,2.55,0,4.75.2,6.65h-3.9l-.25-4h-.1a9,9,0,0,1-8,4.5c-3.8,0-8.35-2.15-8.35-10.6V664.88h4.4v13.35c0,4.6,1.45,7.75,5.4,7.75a6.33,6.33,0,0,0,5.8-4.05,6,6,0,0,0,.4-2.25v-14.8h4.4Z"/><path class="cls-10" d="M356.4,671.43c0-2.55,0-4.55-.2-6.55h3.9l.25,4h.1a9,9,0,0,1,8-4.5c3.35,0,8.55,2,8.55,10.3v14.4h-4.4v-14c0-3.9-1.45-7.15-5.6-7.15a6.45,6.45,0,0,0-6.2,6.55v14.55h-4.4Z"/><path class="cls-10" d="M389.25,659.08v5.8h6.3v3.35h-6.3v13c0,3,.85,4.7,3.3,4.7a8.22,8.22,0,0,0,2.55-.3l.2,3.35a12,12,0,0,1-3.9.6,6.28,6.28,0,0,1-4.75-1.85c-1.2-1.35-1.7-3.5-1.7-6.35v-13.2H381.2v-3.35H385v-4.5Z"/><path class="cls-10" d="M435,682.43c0,2.55,0,4.75.2,6.65h-3.9l-.25-4h-.1a9,9,0,0,1-8,4.5c-3.8,0-8.35-2.15-8.35-10.6V664.88H419v13.35c0,4.6,1.45,7.75,5.4,7.75a6.33,6.33,0,0,0,5.8-4.05,6,6,0,0,0,.4-2.25v-14.8H435Z"/><path class="cls-10" d="M447.58,659.08v5.8h6.3v3.35h-6.3v13c0,3,.85,4.7,3.3,4.7a8.22,8.22,0,0,0,2.55-.3l.2,3.35a12,12,0,0,1-3.9.6,6.28,6.28,0,0,1-4.75-1.85c-1.2-1.35-1.7-3.5-1.7-6.35v-13.2h-3.75v-3.35h3.75v-4.5Z"/><path class="cls-10" d="M473.06,653.58h4.4v35.5h-4.4Z"/><path class="cls-10" d="M501.86,683.28a40.6,40.6,0,0,0,.35,5.8h-3.95l-.35-3.05h-.15a9,9,0,0,1-7.4,3.6c-4.9,0-7.4-3.45-7.4-7,0-5.85,5.2-9,14.55-9v-.5c0-1.95-.55-5.6-5.5-5.55a11.66,11.66,0,0,0-6.35,1.8l-1-2.95a15.67,15.67,0,0,1,8-2.1c7.4,0,9.2,5,9.2,9.85Zm-4.25-6.55c-4.8-.1-10.25.75-10.25,5.45a3.85,3.85,0,0,0,4.1,4.2,6.11,6.11,0,0,0,6-4,5,5,0,0,0,.2-1.4Z"/><path class="cls-10" d="M530.86,676.78c0,9-6.25,12.85-12.05,12.85-6.5,0-11.6-4.8-11.6-12.45,0-8,5.35-12.8,12-12.8C526.16,664.38,530.86,669.43,530.86,676.78Zm-19.15.25c0,5.3,3,9.3,7.3,9.3s7.35-4,7.35-9.4c0-4.1-2.05-9.25-7.25-9.25S511.71,672.48,511.71,677Z"/><path class="cls-10" d="M536.41,672.43c0-2.85,0-5.3-.2-7.55h3.85l.2,4.8h.15a7.32,7.32,0,0,1,6.75-5.3,9,9,0,0,1,1.2.1v4.15a6.85,6.85,0,0,0-1.5-.1c-3.1,0-5.3,2.3-5.9,5.6a13.16,13.16,0,0,0-.15,2v12.9h-4.4Z"/><path class="cls-10" d="M554.71,677.78c.1,6,3.85,8.4,8.3,8.4a15.74,15.74,0,0,0,6.7-1.25l.8,3.15a19.71,19.71,0,0,1-8.1,1.55c-7.45,0-11.9-5-11.9-12.25s4.3-13,11.35-13c7.95,0,10,6.9,10,11.35a10.73,10.73,0,0,1-.15,2Zm12.9-3.15c0-2.75-1.15-7.1-6.1-7.1-4.5,0-6.4,4.05-6.75,7.1Z"/><path class="cls-10" d="M579.76,677.78c.1,6,3.85,8.4,8.3,8.4a15.74,15.74,0,0,0,6.7-1.25l.8,3.15a19.71,19.71,0,0,1-8.1,1.55c-7.45,0-11.9-5-11.9-12.25s4.3-13,11.35-13c8,0,10,6.9,10,11.35a10.73,10.73,0,0,1-.15,2Zm12.9-3.15c.05-2.75-1.15-7.1-6.1-7.1-4.5,0-6.4,4.05-6.75,7.1Z"/><path class="cls-10" d="M607.66,659.08v5.8H614v3.35h-6.3v13c0,3,.85,4.7,3.3,4.7a8.22,8.22,0,0,0,2.55-.3l.2,3.35a12,12,0,0,1-3.9.6,6.28,6.28,0,0,1-4.75-1.85c-1.2-1.35-1.7-3.5-1.7-6.35v-13.2h-3.75v-3.35h3.75v-4.5Z"/><path class="cls-10" d="M654,653.58v29.25c0,2.15.1,4.6.2,6.25h-3.9l-.2-4.2h-.15a8.74,8.74,0,0,1-8.15,4.75c-5.85,0-10.4-5-10.4-12.3,0-8.05,5-13,10.85-13,3.75,0,6.2,1.75,7.3,3.65h.1V653.58Zm-4.35,21.15a7.77,7.77,0,0,0-.2-1.85,6.48,6.48,0,0,0-6.35-5c-4.55,0-7.25,4-7.25,9.3,0,4.9,2.45,9,7.15,9a6.67,6.67,0,0,0,6.45-5.25,7.64,7.64,0,0,0,.2-1.9Z"/><path class="cls-10" d="M683.24,676.78c0,9-6.25,12.85-12,12.85-6.5,0-11.6-4.8-11.6-12.45,0-8,5.35-12.8,12-12.8C678.54,664.38,683.24,669.43,683.24,676.78Zm-19.15.25c0,5.3,3,9.3,7.3,9.3s7.35-4,7.35-9.4c0-4.1-2-9.25-7.25-9.25S664.09,672.48,664.09,677Z"/><path class="cls-10" d="M688.79,653.58h4.4v35.5h-4.4Z"/><path class="cls-10" d="M722.49,676.78c0,9-6.25,12.85-12,12.85-6.5,0-11.6-4.8-11.6-12.45,0-8,5.35-12.8,12-12.8C717.79,664.38,722.49,669.43,722.49,676.78Zm-19.15.25c0,5.3,3,9.3,7.3,9.3s7.35-4,7.35-9.4c0-4.1-2-9.25-7.25-9.25S703.34,672.48,703.34,677Z"/><path class="cls-10" d="M728,672.43c0-2.85,0-5.3-.2-7.55h3.85l.2,4.8H732a7.32,7.32,0,0,1,6.75-5.3,9,9,0,0,1,1.2.1v4.15a6.85,6.85,0,0,0-1.5-.1c-3.1,0-5.3,2.3-5.9,5.6a13.16,13.16,0,0,0-.15,2v12.9H728Z"/><path class="cls-10" d="M746.34,677.78c.1,6,3.85,8.4,8.3,8.4a15.74,15.74,0,0,0,6.7-1.25l.8,3.15a19.71,19.71,0,0,1-8.1,1.55c-7.45,0-11.9-5-11.9-12.25s4.3-13,11.35-13c8,0,10,6.9,10,11.35a10.73,10.73,0,0,1-.15,2Zm12.9-3.15c0-2.75-1.15-7.1-6.1-7.1-4.5,0-6.4,4.05-6.75,7.1Z"/><path class="cls-10" d="M783.17,671.43c0-2.55-.1-4.55-.2-6.55h3.85l.2,4h.15a8.36,8.36,0,0,1,7.65-4.45,7.14,7.14,0,0,1,6.8,4.85h.1a9.55,9.55,0,0,1,2.75-3.15,8.12,8.12,0,0,1,5.3-1.7c3.25,0,8,2.1,8,10.5v14.2h-4.3V675.43c0-4.7-1.75-7.45-5.25-7.45a5.78,5.78,0,0,0-5.25,3.95,7.51,7.51,0,0,0-.35,2.2v15h-4.3v-14.5c0-3.85-1.7-6.6-5.05-6.6-2.7,0-4.75,2.2-5.45,4.4a5.88,5.88,0,0,0-.35,2.15v14.55h-4.3Z"/><path class="cls-10" d="M841.87,683.28a40.6,40.6,0,0,0,.35,5.8h-4l-.35-3.05h-.15a9,9,0,0,1-7.4,3.6c-4.9,0-7.4-3.45-7.4-7,0-5.85,5.2-9,14.55-9v-.5c0-1.95-.55-5.6-5.5-5.55a11.66,11.66,0,0,0-6.35,1.8l-1-2.95a15.67,15.67,0,0,1,8-2.1c7.4,0,9.2,5,9.2,9.85Zm-4.25-6.55c-4.8-.1-10.25.75-10.25,5.45a3.85,3.85,0,0,0,4.1,4.2,6.11,6.11,0,0,0,5.95-4,5,5,0,0,0,.2-1.4Z"/><path class="cls-10" d="M869.67,685.53c0,5.6-1.15,9-3.45,11.1s-5.8,2.9-8.85,2.9a15.62,15.62,0,0,1-8-2l1.1-3.4a13.17,13.17,0,0,0,7.1,2c4.5,0,7.8-2.35,7.8-8.5v-2.65h-.1a8.58,8.58,0,0,1-7.7,4.05c-6,0-10.3-5.1-10.3-11.8,0-8.2,5.35-12.8,10.95-12.8a8.08,8.08,0,0,1,7.55,4.15h.1l.15-3.65h3.9c-.15,1.7-.2,3.7-.2,6.6Zm-4.4-11.1a5.77,5.77,0,0,0-.25-1.95,6.28,6.28,0,0,0-6.15-4.7c-4.2,0-7.2,3.55-7.2,9.15,0,4.75,2.45,8.7,7.15,8.7a6.34,6.34,0,0,0,6.1-4.5,7.66,7.66,0,0,0,.35-2.35Z"/><path class="cls-10" d="M876.62,671.43c0-2.55,0-4.55-.2-6.55h3.9l.25,4h.1a9,9,0,0,1,8-4.5c3.35,0,8.55,2,8.55,10.3v14.4h-4.4v-14c0-3.9-1.45-7.15-5.6-7.15a6.45,6.45,0,0,0-6.2,6.55v14.55h-4.4Z"/><path class="cls-10" d="M921.37,683.28a40.6,40.6,0,0,0,.35,5.8h-4l-.35-3.05h-.15a9,9,0,0,1-7.4,3.6c-4.9,0-7.4-3.45-7.4-7,0-5.85,5.2-9,14.55-9v-.5c0-1.95-.55-5.6-5.5-5.55a11.66,11.66,0,0,0-6.35,1.8l-1-2.95a15.67,15.67,0,0,1,8-2.1c7.4,0,9.2,5,9.2,9.85Zm-4.25-6.55c-4.8-.1-10.25.75-10.25,5.45a3.85,3.85,0,0,0,4.1,4.2,6.11,6.11,0,0,0,5.95-4,5,5,0,0,0,.2-1.4Z"/><path class="cls-10" d="M959.71,683.28a40.71,40.71,0,0,0,.34,5.8H956.1l-.35-3.05h-.15a9,9,0,0,1-7.4,3.6c-4.9,0-7.4-3.45-7.4-7,0-5.85,5.2-9,14.55-9v-.5c0-1.95-.55-5.6-5.5-5.55a11.66,11.66,0,0,0-6.35,1.8l-1-2.95a15.67,15.67,0,0,1,8-2.1c7.41,0,9.21,5,9.21,9.85Zm-4.25-6.55c-4.81-.1-10.26.75-10.26,5.45a3.85,3.85,0,0,0,4.1,4.2,6.11,6.11,0,0,0,6-4,5,5,0,0,0,.21-1.4Z"/><path class="cls-10" d="M966.8,653.58h4.4v35.5h-4.4Z"/><path class="cls-10" d="M983.5,658.08a2.63,2.63,0,0,1-2.8,2.7,2.59,2.59,0,0,1-2.65-2.7,2.68,2.68,0,0,1,2.75-2.75A2.64,2.64,0,0,1,983.5,658.08Zm-4.9,31v-24.2H983v24.2Z"/><path class="cls-10" d="M1000.5,674v3.2H988.15V674Z"/><path class="cls-10" d="M317.15,745.38h-.1a8.74,8.74,0,0,1-7.9,4.25c-5.65,0-10.25-4.85-10.25-12.2,0-9.1,5.85-13,11-13a8,8,0,0,1,7.45,4.15h.1l.15-3.65h4.15c-.1,2-.2,4.15-.2,6.65V759h-4.35Zm0-10.7a7.1,7.1,0,0,0-.2-1.8,6.47,6.47,0,0,0-6.3-5c-4.55,0-7.3,3.85-7.3,9.25,0,4.85,2.3,9,7.15,9a6.57,6.57,0,0,0,6.3-4.75,8,8,0,0,0,.35-2.15Z"/><path class="cls-10" d="M349.05,742.43c0,2.55.05,4.75.2,6.65h-3.9l-.25-4H345a9,9,0,0,1-8,4.5c-3.8,0-8.35-2.15-8.35-10.6V724.88h4.4v13.35c0,4.6,1.45,7.75,5.4,7.75a6.33,6.33,0,0,0,5.8-4.05,6,6,0,0,0,.4-2.25v-14.8h4.4Z"/><path class="cls-10" d="M373.35,743.28a40.6,40.6,0,0,0,.35,5.8h-3.95L369.4,746h-.15a9,9,0,0,1-7.4,3.6c-4.9,0-7.4-3.45-7.4-7,0-5.85,5.2-9,14.55-9v-.5c0-1.95-.55-5.6-5.5-5.55a11.66,11.66,0,0,0-6.35,1.8l-1-2.95a15.67,15.67,0,0,1,8-2.1c7.4,0,9.2,5,9.2,9.85Zm-4.25-6.55c-4.8-.1-10.25.75-10.25,5.45a3.85,3.85,0,0,0,4.1,4.2,6.11,6.11,0,0,0,5.95-4,5,5,0,0,0,.2-1.4Z"/><path class="cls-10" d="M380.45,731.43c0-2.55-.1-4.55-.2-6.55h3.85l.2,4h.15a8.36,8.36,0,0,1,7.65-4.45,7.14,7.14,0,0,1,6.8,4.85h.1a9.55,9.55,0,0,1,2.75-3.15,8.12,8.12,0,0,1,5.3-1.7c3.25,0,8,2.1,8,10.5v14.2h-4.3V735.43c0-4.7-1.75-7.45-5.25-7.45a5.78,5.78,0,0,0-5.25,3.95,7.51,7.51,0,0,0-.35,2.2v15h-4.3v-14.5c0-3.85-1.7-6.6-5.05-6.6-2.7,0-4.75,2.2-5.45,4.4a5.88,5.88,0,0,0-.35,2.15v14.55h-4.3Z"/><path class="cls-10" d="M440.72,737.78c.1,6,3.85,8.4,8.3,8.4a15.74,15.74,0,0,0,6.7-1.25l.8,3.15a19.71,19.71,0,0,1-8.1,1.55c-7.45,0-11.9-5-11.9-12.25s4.3-13,11.35-13c7.95,0,10,6.9,10,11.35a10.73,10.73,0,0,1-.15,2Zm12.9-3.15c.05-2.75-1.15-7.1-6.1-7.1-4.5,0-6.4,4.05-6.75,7.1Z"/><path class="cls-10" d="M463.32,732.43c0-2.85-.05-5.3-.2-7.55H467l.2,4.8h.15a7.32,7.32,0,0,1,6.75-5.3,9,9,0,0,1,1.2.1v4.15a6.85,6.85,0,0,0-1.5-.1c-3.1,0-5.3,2.3-5.9,5.6a13.16,13.16,0,0,0-.15,2v12.9h-4.4Z"/><path class="cls-10" d="M496.42,743.28a40.6,40.6,0,0,0,.35,5.8h-3.95l-.35-3.05h-.15a9,9,0,0,1-7.4,3.6c-4.9,0-7.4-3.45-7.4-7,0-5.85,5.2-9,14.55-9v-.5c0-1.95-.55-5.6-5.5-5.55a11.66,11.66,0,0,0-6.35,1.8l-1-2.95a15.67,15.67,0,0,1,8-2.1c7.4,0,9.2,5,9.2,9.85Zm-4.25-6.55c-4.8-.1-10.25.75-10.25,5.45a3.85,3.85,0,0,0,4.1,4.2,6.11,6.11,0,0,0,6-4,5,5,0,0,0,.2-1.4Z"/><path class="cls-10" d="M508.62,719.08v5.8h6.3v3.35h-6.3v13c0,3,.85,4.7,3.3,4.7a8.22,8.22,0,0,0,2.55-.3l.2,3.35a12,12,0,0,1-3.9.6,6.28,6.28,0,0,1-4.75-1.85c-1.2-1.35-1.7-3.5-1.7-6.35v-13.2h-3.75v-3.35h3.75v-4.5Z"/><path class="cls-10" d="M537.69,724.88l4.75,13.55c.8,2.25,1.45,4.25,1.95,6.25h.15c.55-2,1.25-4,2.05-6.25l4.7-13.55h4.6l-9.5,24.2h-4.2l-9.2-24.2Z"/><path class="cls-10" d="M581.44,736.78c0,9-6.25,12.85-12.05,12.85-6.5,0-11.6-4.8-11.6-12.45,0-8,5.35-12.8,12-12.8C576.74,724.38,581.44,729.43,581.44,736.78Zm-19.15.25c0,5.3,3,9.3,7.3,9.3s7.35-4,7.35-9.4c0-4.1-2.05-9.25-7.25-9.25S562.29,732.48,562.29,737Z"/><path class="cls-10" d="M587,713.58h4.4v35.5H587Z"/><path class="cls-10" d="M619,742.43c0,2.55.05,4.75.2,6.65h-3.9l-.25-4H615a9,9,0,0,1-8,4.5c-3.8,0-8.35-2.15-8.35-10.6V724.88H603v13.35c0,4.6,1.45,7.75,5.4,7.75a6.33,6.33,0,0,0,5.8-4.05,6,6,0,0,0,.4-2.25v-14.8H619Z"/><path class="cls-10" d="M631.64,719.08v5.8h6.3v3.35h-6.3v13c0,3,.85,4.7,3.3,4.7a8.22,8.22,0,0,0,2.55-.3l.2,3.35a12,12,0,0,1-3.9.6,6.28,6.28,0,0,1-4.75-1.85c-1.2-1.35-1.7-3.5-1.7-6.35v-13.2h-3.75v-3.35h3.75v-4.5Z"/><path class="cls-10" d="M642.89,732.78c0-3.1-.1-5.6-.2-7.9h3.9l.25,4.15h.1a9.42,9.42,0,0,1,8.6-4.65c5.9,0,10.3,5,10.3,12.25,0,8.7-5.35,13-11.05,13a8.49,8.49,0,0,1-7.45-3.8h-.1V759h-4.35Zm4.35,6.45a6.79,6.79,0,0,0,6.8,6.95c4.65,0,7.35-3.8,7.35-9.35,0-4.8-2.55-9-7.2-9a6.93,6.93,0,0,0-6.65,5.4,7.13,7.13,0,0,0-.3,1.75Z"/><path class="cls-10" d="M688.34,743.28a40.6,40.6,0,0,0,.35,5.8h-4l-.35-3.05h-.15a9,9,0,0,1-7.4,3.6c-4.9,0-7.4-3.45-7.4-7,0-5.85,5.2-9,14.55-9v-.5c0-1.95-.55-5.6-5.5-5.55a11.66,11.66,0,0,0-6.35,1.8l-1-2.95a15.67,15.67,0,0,1,8-2.1c7.4,0,9.2,5,9.2,9.85Zm-4.25-6.55c-4.8-.1-10.25.75-10.25,5.45a3.85,3.85,0,0,0,4.1,4.2,6.11,6.11,0,0,0,5.95-4,5,5,0,0,0,.2-1.4Z"/><path class="cls-10" d="M700.54,719.08v5.8h6.3v3.35h-6.3v13c0,3,.85,4.7,3.3,4.7a8.22,8.22,0,0,0,2.55-.3l.2,3.35a12,12,0,0,1-3.9.6,6.28,6.28,0,0,1-4.75-1.85c-1.2-1.35-1.7-3.5-1.7-6.35v-13.2h-3.75v-3.35h3.75v-4.5Z"/><path class="cls-10" d="M710.59,746.48a3,3,0,0,1,3-3.15,2.92,2.92,0,0,1,2.95,3.15,3,3,0,0,1-3,3.15A2.94,2.94,0,0,1,710.59,746.48Z"/><path class="cls-10" d="M742.61,715.38v20c0,7.5,3.35,10.7,7.85,10.7,4.95,0,8.2-3.3,8.2-10.7v-20h4.4v19.7c0,10.35-5.45,14.55-12.75,14.55-6.9,0-12.1-3.9-12.1-14.4V715.38Z"/><path class="cls-10" d="M776,719.08v5.8h6.3v3.35H776v13c0,3,.85,4.7,3.3,4.7a8.22,8.22,0,0,0,2.55-.3L782,749a12,12,0,0,1-3.9.6,6.28,6.28,0,0,1-4.75-1.85c-1.2-1.35-1.7-3.5-1.7-6.35v-13.2h-3.75v-3.35h3.75v-4.5Z"/><path class="cls-10" d="M805.08,724.88l3.25,12.3c.65,2.7,1.3,5.2,1.75,7.7h.15c.55-2.45,1.35-5,2.15-7.65l4-12.35H820l3.75,12.1c.9,2.9,1.6,5.45,2.15,7.9h.15a72.77,72.77,0,0,1,1.85-7.85l3.45-12.15h4.35l-7.8,24.2h-4l-3.7-11.55a80.65,80.65,0,0,1-2.15-7.95H818a71.61,71.61,0,0,1-2.2,8l-3.9,11.5h-4l-7.3-24.2Z"/><path class="cls-10" d="M845,718.08a2.63,2.63,0,0,1-2.8,2.7,2.59,2.59,0,0,1-2.65-2.7,2.68,2.68,0,0,1,2.75-2.75A2.64,2.64,0,0,1,845,718.08Zm-4.9,31v-24.2h4.4v24.2Z"/><path class="cls-10" d="M851.23,744.63a12.43,12.43,0,0,0,5.85,1.7c3.15,0,4.65-1.55,4.65-3.6s-1.25-3.2-4.45-4.4c-4.4-1.6-6.45-4-6.45-6.85,0-3.9,3.2-7.1,8.35-7.1a11.23,11.23,0,0,1,5.9,1.5l-1.05,3.2a9.38,9.38,0,0,0-4.95-1.45c-2.6,0-4,1.5-4,3.3,0,2,1.4,2.9,4.55,4.15,4.15,1.55,6.35,3.65,6.35,7.25,0,4.3-3.35,7.3-9,7.3a13.8,13.8,0,0,1-6.8-1.7Z"/><path class="cls-10" d="M876.53,718.08a2.63,2.63,0,0,1-2.8,2.7,2.59,2.59,0,0,1-2.65-2.7,2.68,2.68,0,0,1,2.75-2.75A2.64,2.64,0,0,1,876.53,718.08Zm-4.9,31v-24.2H876v24.2Z"/><path class="cls-10" d="M901.9,737.78c.1,6,3.85,8.4,8.3,8.4a15.74,15.74,0,0,0,6.7-1.25l.8,3.15a19.71,19.71,0,0,1-8.1,1.55c-7.45,0-11.9-5-11.9-12.25s4.3-13,11.35-13c8,0,10,6.9,10,11.35a10.73,10.73,0,0,1-.15,2Zm12.9-3.15c.05-2.75-1.15-7.1-6.1-7.1-4.5,0-6.4,4.05-6.75,7.1Z"/><path class="cls-10" d="M924.5,731.43c0-2.55,0-4.55-.2-6.55h3.9l.25,4h.1a9,9,0,0,1,8-4.5c3.35,0,8.55,2,8.55,10.3v14.4h-4.4v-14c0-3.9-1.45-7.15-5.6-7.15a6.45,6.45,0,0,0-6.2,6.55v14.55h-4.4Z"/><path class="cls-10" d="M957.15,718.08a2.63,2.63,0,0,1-2.8,2.7,2.59,2.59,0,0,1-2.65-2.7,2.68,2.68,0,0,1,2.75-2.75A2.64,2.64,0,0,1,957.15,718.08Zm-4.9,31v-24.2h4.4v24.2Z"/><path class="cls-10" d="M964,731.43c0-2.55-.1-4.55-.2-6.55h3.85l.2,4H968a8.36,8.36,0,0,1,7.65-4.45,7.14,7.14,0,0,1,6.8,4.85h.1a9.55,9.55,0,0,1,2.75-3.15,8.12,8.12,0,0,1,5.3-1.7c3.25,0,8,2.1,8,10.5v14.2h-4.3V735.43c0-4.7-1.75-7.45-5.25-7.45a5.78,5.78,0,0,0-5.25,3.95,7.51,7.51,0,0,0-.35,2.2v15h-4.3v-14.5c0-3.85-1.7-6.6-5.05-6.6-2.7,0-4.75,2.2-5.45,4.4a5.88,5.88,0,0,0-.35,2.15v14.55H964Z"/><path class="cls-10" d="M317.65,803.28a40.6,40.6,0,0,0,.35,5.8h-3.95L313.7,806h-.15a9,9,0,0,1-7.4,3.6c-4.9,0-7.4-3.45-7.4-7,0-5.85,5.2-9,14.55-9v-.5c0-1.95-.55-5.6-5.5-5.55a11.66,11.66,0,0,0-6.35,1.8l-1-2.95a15.67,15.67,0,0,1,8-2.1c7.4,0,9.2,5,9.2,9.85Zm-4.25-6.55c-4.8-.1-10.25.75-10.25,5.45a3.85,3.85,0,0,0,4.1,4.2,6.11,6.11,0,0,0,5.95-4,5,5,0,0,0,.2-1.4Z"/><path class="cls-10" d="M345.6,773.58v29.25c0,2.15.1,4.6.2,6.25h-3.9l-.2-4.2h-.15a8.74,8.74,0,0,1-8.15,4.75c-5.85,0-10.4-5-10.4-12.3-.05-8.05,5-13,10.85-13,3.75,0,6.2,1.75,7.3,3.65h.1V773.58Zm-4.35,21.15a7.77,7.77,0,0,0-.2-1.85,6.48,6.48,0,0,0-6.35-5c-4.55,0-7.25,4-7.25,9.3,0,4.9,2.45,9,7.15,9a6.67,6.67,0,0,0,6.45-5.25,7.64,7.64,0,0,0,.2-1.9Z"/><path class="cls-10" d="M378.73,791.43c0-2.55-.1-4.55-.2-6.55h3.85l.2,4h.15a8.36,8.36,0,0,1,7.65-4.45,7.14,7.14,0,0,1,6.8,4.85h.1a9.55,9.55,0,0,1,2.75-3.15,8.12,8.12,0,0,1,5.3-1.7c3.25,0,8,2.1,8,10.5v14.2H409V795.43c0-4.7-1.75-7.45-5.25-7.45a5.78,5.78,0,0,0-5.25,3.95,7.51,7.51,0,0,0-.35,2.2v15h-4.3v-14.5c0-3.85-1.7-6.6-5.05-6.6-2.7,0-4.75,2.2-5.45,4.4a5.88,5.88,0,0,0-.35,2.15v14.55h-4.3Z"/><path class="cls-10" d="M425.33,778.08a2.63,2.63,0,0,1-2.8,2.7,2.59,2.59,0,0,1-2.65-2.7,2.68,2.68,0,0,1,2.75-2.75A2.64,2.64,0,0,1,425.33,778.08Zm-4.9,31v-24.2h4.4v24.2Z"/><path class="cls-10" d="M432.13,791.43c0-2.55-.05-4.55-.2-6.55h3.9l.25,4h.1a9,9,0,0,1,8-4.5c3.35,0,8.55,2,8.55,10.3v14.4h-4.4v-14c0-3.9-1.45-7.15-5.6-7.15a6.45,6.45,0,0,0-6.2,6.55v14.55h-4.4Z"/><path class="cls-10" d="M464.78,778.08a2.63,2.63,0,0,1-2.8,2.7,2.59,2.59,0,0,1-2.65-2.7,2.68,2.68,0,0,1,2.75-2.75A2.64,2.64,0,0,1,464.78,778.08Zm-4.9,31v-24.2h4.4v24.2Z"/><path class="cls-10" d="M471.58,791.43c0-2.55-.1-4.55-.2-6.55h3.85l.2,4h.15a8.36,8.36,0,0,1,7.65-4.45,7.14,7.14,0,0,1,6.8,4.85h.1a9.55,9.55,0,0,1,2.75-3.15,8.12,8.12,0,0,1,5.3-1.7c3.25,0,8,2.1,8,10.5v14.2h-4.3V795.43c0-4.7-1.75-7.45-5.25-7.45a5.78,5.78,0,0,0-5.25,3.95,7.51,7.51,0,0,0-.35,2.2v15h-4.3v-14.5c0-3.85-1.7-6.6-5.05-6.6-2.7,0-4.75,2.2-5.45,4.4a5.88,5.88,0,0,0-.35,2.15v14.55h-4.3Z"/><path class="cls-10" d="M540.75,784.88l4.75,13.55c.8,2.25,1.45,4.25,2,6.25h.15c.55-2,1.25-4,2-6.25l4.7-13.55H559l-9.5,24.2h-4.2l-9.2-24.2Z"/><path class="cls-10" d="M565.05,797.78c.1,6,3.85,8.4,8.3,8.4a15.74,15.74,0,0,0,6.7-1.25l.8,3.15a19.71,19.71,0,0,1-8.1,1.55c-7.45,0-11.9-5-11.9-12.25s4.3-13,11.35-13c7.95,0,10,6.9,10,11.35a10.73,10.73,0,0,1-.15,2Zm12.9-3.15c0-2.75-1.15-7.1-6.1-7.1-4.5,0-6.4,4.05-6.75,7.1Z"/><path class="cls-10" d="M587.65,791.43c0-2.55,0-4.55-.2-6.55h3.9l.25,4h.1a9,9,0,0,1,8-4.5c3.35,0,8.55,2,8.55,10.3v14.4h-4.4v-14c0-3.9-1.45-7.15-5.6-7.15a6.45,6.45,0,0,0-6.2,6.55v14.55h-4.4Z"/><path class="cls-10" d="M620.3,778.08a2.63,2.63,0,0,1-2.8,2.7,2.59,2.59,0,0,1-2.65-2.7,2.68,2.68,0,0,1,2.75-2.75A2.64,2.64,0,0,1,620.3,778.08Zm-4.9,31v-24.2h4.4v24.2Z"/><path class="cls-10" d="M644.1,803.28a40.6,40.6,0,0,0,.35,5.8h-4l-.35-3.05H640a9,9,0,0,1-7.4,3.6c-4.9,0-7.4-3.45-7.4-7,0-5.85,5.2-9,14.55-9v-.5c0-1.95-.55-5.6-5.5-5.55a11.66,11.66,0,0,0-6.35,1.8l-1-2.95a15.67,15.67,0,0,1,8-2.1c7.4,0,9.2,5,9.2,9.85Zm-4.25-6.55c-4.8-.1-10.25.75-10.25,5.45a3.85,3.85,0,0,0,4.1,4.2,6.11,6.11,0,0,0,5.95-4,5,5,0,0,0,.2-1.4Z"/><path class="cls-10" d="M651.2,791.43c0-2.55-.1-4.55-.2-6.55h3.85l.2,4h.15a8.36,8.36,0,0,1,7.65-4.45,7.14,7.14,0,0,1,6.8,4.85h.1a9.55,9.55,0,0,1,2.75-3.15,8.12,8.12,0,0,1,5.3-1.7c3.25,0,8,2.1,8,10.5v14.2h-4.3V795.43c0-4.7-1.75-7.45-5.25-7.45a5.78,5.78,0,0,0-5.25,3.95,7.51,7.51,0,0,0-.35,2.2v15h-4.3v-14.5c0-3.85-1.7-6.6-5.05-6.6-2.7,0-4.75,2.2-5.45,4.4a5.88,5.88,0,0,0-.35,2.15v14.55h-4.3Z"/><path class="cls-10" d="M690.05,815.28a73.84,73.84,0,0,0,3-12l4.9-.5a63.9,63.9,0,0,1-4.8,12.15Z"/><path class="cls-10" d="M745.53,805.38h-.1a8.74,8.74,0,0,1-7.9,4.25c-5.65,0-10.25-4.85-10.25-12.2,0-9.1,5.85-13,11-13a8,8,0,0,1,7.45,4.15h.1l.15-3.65h4.15c-.1,2-.2,4.15-.2,6.65V819h-4.35Zm0-10.7a7.1,7.1,0,0,0-.2-1.8,6.47,6.47,0,0,0-6.3-5c-4.55,0-7.3,3.85-7.3,9.25,0,4.85,2.3,9,7.15,9a6.57,6.57,0,0,0,6.3-4.75,8,8,0,0,0,.35-2.15Z"/><path class="cls-10" d="M777.43,802.43c0,2.55.05,4.75.2,6.65h-3.9l-.25-4h-.1a9,9,0,0,1-8,4.5c-3.8,0-8.35-2.15-8.35-10.6V784.88h4.4v13.35c0,4.6,1.45,7.75,5.4,7.75a6.33,6.33,0,0,0,5.8-4.05,6,6,0,0,0,.4-2.25v-14.8h4.4Z"/><path class="cls-10" d="M789.63,778.08a2.63,2.63,0,0,1-2.8,2.7,2.59,2.59,0,0,1-2.65-2.7,2.68,2.68,0,0,1,2.75-2.75A2.64,2.64,0,0,1,789.63,778.08Zm-4.9,31v-24.2h4.4v24.2Z"/><path class="cls-10" d="M795.83,804.63a12.43,12.43,0,0,0,5.85,1.7c3.15,0,4.65-1.55,4.65-3.6s-1.25-3.2-4.45-4.4c-4.4-1.6-6.45-4-6.45-6.85,0-3.9,3.2-7.1,8.35-7.1a11.23,11.23,0,0,1,5.9,1.5l-1,3.2a9.38,9.38,0,0,0-5-1.45c-2.6,0-4,1.5-4,3.3,0,2,1.4,2.9,4.55,4.15,4.15,1.55,6.35,3.65,6.35,7.25,0,4.3-3.35,7.3-9,7.3a13.8,13.8,0,0,1-6.8-1.7Z"/><path class="cls-10" d="M842,791.43c0-2.55,0-4.55-.2-6.55h3.9l.25,4h.1a9,9,0,0,1,8-4.5c3.35,0,8.55,2,8.55,10.3v14.4h-4.4v-14c0-3.9-1.45-7.15-5.6-7.15a6.45,6.45,0,0,0-6.2,6.55v14.55H842Z"/><path class="cls-10" d="M891.65,796.78c0,9-6.25,12.85-12,12.85-6.5,0-11.6-4.8-11.6-12.45,0-8,5.35-12.8,12-12.8C887,784.38,891.65,789.43,891.65,796.78ZM872.5,797c0,5.3,3,9.3,7.3,9.3s7.35-4,7.35-9.4c0-4.1-2-9.25-7.25-9.25S872.5,792.48,872.5,797Z"/><path class="cls-10" d="M896.6,804.63a12.43,12.43,0,0,0,5.85,1.7c3.15,0,4.65-1.55,4.65-3.6s-1.25-3.2-4.45-4.4c-4.4-1.6-6.45-4-6.45-6.85,0-3.9,3.2-7.1,8.35-7.1a11.23,11.23,0,0,1,5.9,1.5l-1.05,3.2a9.38,9.38,0,0,0-4.95-1.45c-2.6,0-4,1.5-4,3.3,0,2,1.4,2.9,4.55,4.15,4.15,1.55,6.35,3.65,6.35,7.25,0,4.3-3.35,7.3-9,7.3a13.8,13.8,0,0,1-6.8-1.7Z"/><path class="cls-10" d="M922.3,779.08v5.8h6.3v3.35h-6.3v13c0,3,.85,4.7,3.3,4.7a8.22,8.22,0,0,0,2.55-.3l.2,3.35a12,12,0,0,1-3.9.6,6.28,6.28,0,0,1-4.75-1.85c-1.2-1.35-1.7-3.5-1.7-6.35v-13.2h-3.75v-3.35H918v-4.5Z"/><path class="cls-10" d="M933.55,792.43c0-2.85,0-5.3-.2-7.55h3.85l.2,4.8h.15a7.32,7.32,0,0,1,6.75-5.3,9,9,0,0,1,1.2.1v4.15a6.85,6.85,0,0,0-1.5-.1c-3.1,0-5.3,2.3-5.9,5.6a13.16,13.16,0,0,0-.15,2v12.9h-4.4Z"/><path class="cls-10" d="M970.15,802.43c0,2.55.05,4.75.2,6.65h-3.9l-.25-4h-.1a9,9,0,0,1-8,4.5c-3.8,0-8.35-2.15-8.35-10.6V784.88h4.4v13.35c0,4.6,1.45,7.75,5.4,7.75a6.33,6.33,0,0,0,5.8-4.05,6,6,0,0,0,.4-2.25v-14.8h4.4Z"/><path class="cls-10" d="M998.3,773.58v29.25c0,2.15.1,4.6.2,6.25h-3.9l-.2-4.2h-.15a8.74,8.74,0,0,1-8.15,4.75c-5.85,0-10.4-5-10.4-12.3-.05-8.05,5-13,10.85-13,3.75,0,6.2,1.75,7.3,3.65h.1V773.58ZM994,794.73a7.77,7.77,0,0,0-.2-1.85,6.48,6.48,0,0,0-6.35-5c-4.55,0-7.25,4-7.25,9.3,0,4.9,2.45,9,7.15,9a6.67,6.67,0,0,0,6.45-5.25,7.64,7.64,0,0,0,.2-1.9Z"/><path class="cls-10" d="M303.1,857.78c.1,6,3.85,8.4,8.3,8.4a15.74,15.74,0,0,0,6.7-1.25l.8,3.15a19.71,19.71,0,0,1-8.1,1.55c-7.45,0-11.9-5-11.9-12.25s4.3-13,11.35-13c7.95,0,10,6.9,10,11.35a10.73,10.73,0,0,1-.15,2Zm12.9-3.15c.05-2.75-1.15-7.1-6.1-7.1-4.5,0-6.4,4.05-6.75,7.1Z"/><path class="cls-10" d="M327.6,844.88l3.45,5.2c.95,1.35,1.7,2.55,2.5,3.9h.1c.8-1.4,1.6-2.65,2.45-4l3.35-5.15h4.8L336,856.58l8.45,12.5H339.5l-3.6-5.45c-.95-1.4-1.75-2.75-2.6-4.2h-.1c-.8,1.45-1.6,2.75-2.55,4.2l-3.5,5.45H322.3l8.6-12.35-8.2-11.85Z"/><path class="cls-10" d="M350.4,857.78c.1,6,3.85,8.4,8.3,8.4a15.74,15.74,0,0,0,6.7-1.25l.8,3.15a19.71,19.71,0,0,1-8.1,1.55c-7.45,0-11.9-5-11.9-12.25s4.3-13,11.35-13c7.95,0,10,6.9,10,11.35a10.73,10.73,0,0,1-.15,2Zm12.9-3.15c.05-2.75-1.15-7.1-6.1-7.1-4.5,0-6.4,4.05-6.75,7.1Z"/><path class="cls-10" d="M373,852.43c0-2.85-.05-5.3-.2-7.55h3.85l.2,4.8H377a7.32,7.32,0,0,1,6.75-5.3,9,9,0,0,1,1.2.1v4.15a6.85,6.85,0,0,0-1.5-.1c-3.1,0-5.3,2.3-5.9,5.6a13.16,13.16,0,0,0-.15,2v12.9H373Z"/><path class="cls-10" d="M406.1,868.23a17,17,0,0,1-7,1.4c-7.3,0-12-5-12-12.35s5.1-12.9,13-12.9a13.85,13.85,0,0,1,6.1,1.3l-1,3.35a10.77,10.77,0,0,0-5.1-1.15c-5.55,0-8.55,4.15-8.55,9.15,0,5.6,3.6,9.05,8.4,9.05a12.6,12.6,0,0,0,5.4-1.15Z"/><path class="cls-10" d="M416.15,838.08a2.63,2.63,0,0,1-2.8,2.7,2.59,2.59,0,0,1-2.65-2.7,2.68,2.68,0,0,1,2.75-2.75A2.64,2.64,0,0,1,416.15,838.08Zm-4.9,31v-24.2h4.4v24.2Z"/><path class="cls-10" d="M444.24,839.08v5.8h6.3v3.35h-6.3v13c0,3,.85,4.7,3.3,4.7a8.22,8.22,0,0,0,2.55-.3l.2,3.35a12,12,0,0,1-3.9.6,6.28,6.28,0,0,1-4.75-1.85c-1.2-1.35-1.7-3.5-1.7-6.35v-13.2h-3.75v-3.35h3.75v-4.5Z"/><path class="cls-10" d="M472.49,863.28a40.6,40.6,0,0,0,.35,5.8h-3.95l-.35-3.05h-.15a9,9,0,0,1-7.4,3.6c-4.9,0-7.41-3.45-7.41-7,0-5.85,5.21-9,14.56-9v-.5c0-1.95-.55-5.6-5.5-5.55a11.66,11.66,0,0,0-6.35,1.8l-1-2.95a15.67,15.67,0,0,1,8-2.1c7.4,0,9.2,5,9.2,9.85Zm-4.25-6.55c-4.8-.1-10.25.75-10.25,5.45a3.85,3.85,0,0,0,4.1,4.2,6.11,6.11,0,0,0,6-4,5,5,0,0,0,.2-1.4Z"/><path class="cls-10" d="M484.69,839.08v5.8H491v3.35h-6.3v13c0,3,.85,4.7,3.3,4.7a8.22,8.22,0,0,0,2.55-.3l.2,3.35a12,12,0,0,1-3.9.6,6.28,6.28,0,0,1-4.75-1.85c-1.2-1.35-1.7-3.5-1.7-6.35v-13.2h-3.76v-3.35h3.76v-4.5Z"/><path class="cls-10" d="M500.83,838.08a2.73,2.73,0,0,1-5.45,0,2.68,2.68,0,0,1,2.76-2.75A2.63,2.63,0,0,1,500.83,838.08Zm-4.89,31v-24.2h4.39v24.2Z"/><path class="cls-10" d="M529.54,856.78c0,9-6.25,12.85-12,12.85-6.51,0-11.61-4.8-11.61-12.45,0-8,5.35-12.8,12-12.8C524.84,844.38,529.54,849.43,529.54,856.78Zm-19.16.25c0,5.3,3,9.3,7.31,9.3s7.35-4,7.35-9.4c0-4.1-2-9.25-7.25-9.25S510.38,852.48,510.38,857Z"/><path class="cls-10" d="M535.08,851.43c0-2.55-.05-4.55-.2-6.55h3.9l.25,4h.1a9,9,0,0,1,8-4.5c3.35,0,8.55,2,8.55,10.3v14.4h-4.4v-14c0-3.9-1.46-7.15-5.6-7.15a6.45,6.45,0,0,0-6.21,6.55v14.55h-4.4Z"/><path class="cls-10" d="M599.07,862.43c0,2.55,0,4.75.2,6.65h-3.9l-.25-4H595a9,9,0,0,1-8,4.5c-3.8,0-8.35-2.15-8.35-10.6V844.88h4.4v13.35c0,4.6,1.45,7.75,5.4,7.75a6.33,6.33,0,0,0,5.8-4.05,6,6,0,0,0,.4-2.25v-14.8h4.4Z"/><path class="cls-10" d="M606.37,833.58h4.4v35.5h-4.4Z"/><path class="cls-10" d="M618.17,833.58h4.4v35.5h-4.4Z"/><path class="cls-10" d="M647,863.28a40.6,40.6,0,0,0,.35,5.8h-4L643,866h-.15a9,9,0,0,1-7.4,3.6c-4.9,0-7.4-3.45-7.4-7,0-5.85,5.2-9,14.55-9v-.5c0-1.95-.55-5.6-5.5-5.55a11.66,11.66,0,0,0-6.35,1.8l-1-2.95a15.67,15.67,0,0,1,8-2.1c7.4,0,9.2,5,9.2,9.85Zm-4.25-6.55c-4.8-.1-10.25.75-10.25,5.45a3.85,3.85,0,0,0,4.1,4.2,6.11,6.11,0,0,0,5.95-4,5,5,0,0,0,.2-1.4Z"/><path class="cls-10" d="M654.07,851.43c0-2.55-.1-4.55-.2-6.55h3.85l.2,4h.15a8.36,8.36,0,0,1,7.65-4.45,7.14,7.14,0,0,1,6.8,4.85h.1a9.55,9.55,0,0,1,2.75-3.15,8.12,8.12,0,0,1,5.3-1.7c3.25,0,8,2.1,8,10.5v14.2h-4.3V855.43c0-4.7-1.75-7.45-5.25-7.45a5.78,5.78,0,0,0-5.25,3.95,7.51,7.51,0,0,0-.35,2.2v15h-4.3v-14.5c0-3.85-1.7-6.6-5.05-6.6-2.7,0-4.75,2.2-5.45,4.4a5.88,5.88,0,0,0-.35,2.15v14.55h-4.3Z"/><path class="cls-10" d="M713,868.23a17,17,0,0,1-6.95,1.4c-7.3,0-12.05-5-12.05-12.35s5.1-12.9,13-12.9a13.85,13.85,0,0,1,6.1,1.3l-1,3.35a10.77,10.77,0,0,0-5.1-1.15c-5.55,0-8.55,4.15-8.55,9.15,0,5.6,3.6,9.05,8.4,9.05a12.6,12.6,0,0,0,5.4-1.15Z"/><path class="cls-10" d="M739.77,856.78c0,9-6.25,12.85-12,12.85-6.5,0-11.6-4.8-11.6-12.45,0-8,5.35-12.8,12-12.8C735.07,844.38,739.77,849.43,739.77,856.78Zm-19.15.25c0,5.3,3,9.3,7.3,9.3s7.35-4,7.35-9.4c0-4.1-2-9.25-7.25-9.25S720.62,852.48,720.62,857Z"/><path class="cls-10" d="M745.32,852.43c0-2.85-.05-5.3-.2-7.55H749l.2,4.8h.15a7.32,7.32,0,0,1,6.75-5.3,9,9,0,0,1,1.2.1v4.15a6.85,6.85,0,0,0-1.5-.1c-3.1,0-5.3,2.3-5.9,5.6a13.16,13.16,0,0,0-.15,2v12.9h-4.4Z"/><path class="cls-10" d="M761.87,852.78c0-3.1-.1-5.6-.2-7.9h3.9l.25,4.15h.1a9.42,9.42,0,0,1,8.6-4.65c5.9,0,10.3,5,10.3,12.25,0,8.7-5.35,13-11.05,13a8.49,8.49,0,0,1-7.45-3.8h-.1V879h-4.35Zm4.35,6.45a6.79,6.79,0,0,0,6.8,6.95c4.65,0,7.35-3.8,7.35-9.35,0-4.8-2.55-9-7.2-9a6.93,6.93,0,0,0-6.65,5.4,7.13,7.13,0,0,0-.3,1.75Z"/><path class="cls-10" d="M792.77,857.78c.1,6,3.85,8.4,8.3,8.4a15.74,15.74,0,0,0,6.7-1.25l.8,3.15a19.71,19.71,0,0,1-8.1,1.55c-7.45,0-11.9-5-11.9-12.25s4.3-13,11.35-13c8,0,10,6.9,10,11.35a10.73,10.73,0,0,1-.15,2Zm12.9-3.15c.05-2.75-1.15-7.1-6.1-7.1-4.5,0-6.4,4.05-6.75,7.1Z"/><path class="cls-10" d="M815.37,852.43c0-2.85,0-5.3-.2-7.55H819l.2,4.8h.15a7.32,7.32,0,0,1,6.75-5.3,9,9,0,0,1,1.2.1v4.15a6.85,6.85,0,0,0-1.5-.1c-3.1,0-5.3,2.3-5.9,5.6a13.16,13.16,0,0,0-.15,2v12.9h-4.4Z"/><path class="cls-10" d="M847.1,864.63a12.43,12.43,0,0,0,5.85,1.7c3.15,0,4.65-1.55,4.65-3.6s-1.25-3.2-4.45-4.4c-4.4-1.6-6.45-4-6.45-6.85,0-3.9,3.2-7.1,8.35-7.1a11.23,11.23,0,0,1,5.9,1.5l-1.05,3.2a9.38,9.38,0,0,0-4.95-1.45c-2.6,0-4,1.5-4,3.3,0,2,1.4,2.9,4.55,4.15,4.15,1.55,6.35,3.65,6.35,7.25,0,4.3-3.35,7.3-9,7.3a13.8,13.8,0,0,1-6.8-1.7Z"/><path class="cls-10" d="M887.75,862.43c0,2.55,0,4.75.2,6.65h-3.9l-.25-4h-.1a9,9,0,0,1-8,4.5c-3.8,0-8.35-2.15-8.35-10.6V844.88h4.4v13.35c0,4.6,1.45,7.75,5.4,7.75a6.33,6.33,0,0,0,5.8-4.05,6,6,0,0,0,.4-2.25v-14.8h4.4Z"/><path class="cls-10" d="M894.45,864.63a12.43,12.43,0,0,0,5.85,1.7c3.15,0,4.65-1.55,4.65-3.6s-1.25-3.2-4.45-4.4c-4.4-1.6-6.45-4-6.45-6.85,0-3.9,3.2-7.1,8.35-7.1a11.23,11.23,0,0,1,5.9,1.5l-1,3.2a9.38,9.38,0,0,0-5-1.45c-2.6,0-4,1.5-4,3.3,0,2,1.4,2.9,4.55,4.15,4.15,1.55,6.35,3.65,6.35,7.25,0,4.3-3.35,7.3-9,7.3a13.8,13.8,0,0,1-6.8-1.7Z"/><path class="cls-10" d="M932.1,868.23a17,17,0,0,1-7,1.4c-7.3,0-12-5-12-12.35s5.1-12.9,13-12.9a13.85,13.85,0,0,1,6.1,1.3l-1,3.35a10.77,10.77,0,0,0-5.1-1.15c-5.55,0-8.55,4.15-8.55,9.15,0,5.6,3.6,9.05,8.4,9.05a12.6,12.6,0,0,0,5.4-1.15Z"/><path class="cls-10" d="M942.15,838.08a2.63,2.63,0,0,1-2.8,2.7,2.59,2.59,0,0,1-2.65-2.7,2.68,2.68,0,0,1,2.75-2.75A2.64,2.64,0,0,1,942.15,838.08Zm-4.9,31v-24.2h4.4v24.2Z"/><path class="cls-10" d="M949,852.78c0-3.1-.1-5.6-.2-7.9h3.9l.25,4.15h.1a9.42,9.42,0,0,1,8.6-4.65c5.9,0,10.3,5,10.3,12.25,0,8.7-5.35,13-11,13a8.49,8.49,0,0,1-7.45-3.8h-.1V879H949Zm4.35,6.45a6.79,6.79,0,0,0,6.8,6.95c4.65,0,7.35-3.8,7.35-9.35,0-4.8-2.55-9-7.2-9a6.93,6.93,0,0,0-6.65,5.4,7.13,7.13,0,0,0-.3,1.75Z"/><path class="cls-10" d="M982.3,838.08a2.63,2.63,0,0,1-2.8,2.7,2.59,2.59,0,0,1-2.65-2.7,2.68,2.68,0,0,1,2.75-2.75A2.64,2.64,0,0,1,982.3,838.08Zm-4.9,31v-24.2h4.4v24.2Z"/><path class="cls-10" d="M994.4,839.08v5.8h6.3v3.35h-6.3v13c0,3,.85,4.7,3.3,4.7a8.22,8.22,0,0,0,2.55-.3l.2,3.35a12,12,0,0,1-3.9.6,6.28,6.28,0,0,1-4.75-1.85c-1.2-1.35-1.7-3.5-1.7-6.35v-13.2h-3.75v-3.35h3.75v-4.5Z"/><path class="cls-10" d="M300.65,893.58h4.4v35.5h-4.4Z"/><path class="cls-10" d="M334.35,916.78c0,9-6.25,12.85-12.05,12.85-6.5,0-11.6-4.8-11.6-12.45,0-8,5.35-12.8,12-12.8C329.65,904.38,334.35,909.43,334.35,916.78ZM315.2,917c0,5.3,3,9.3,7.3,9.3s7.35-4,7.35-9.4c0-4.1-2.05-9.25-7.25-9.25S315.2,912.48,315.2,917Z"/><path class="cls-10" d="M339.9,893.58h4.35v15.2h.1c1.55-2.7,4.35-4.4,8.25-4.4,6,0,10.25,5,10.25,12.3,0,8.65-5.5,13-10.9,13a8.79,8.79,0,0,1-8.15-4.5h-.1l-.25,4H339.7c.1-1.65.2-4.1.2-6.25Zm4.35,25.8a5.62,5.62,0,0,0,.2,1.6,6.75,6.75,0,0,0,6.6,5.15c4.65,0,7.35-3.75,7.35-9.3,0-4.85-2.5-9-7.25-9a7.06,7.06,0,0,0-6.65,5.4,6.9,6.9,0,0,0-.25,1.85Z"/><path class="cls-10" d="M390.25,916.78c0,9-6.25,12.85-12.05,12.85-6.5,0-11.6-4.8-11.6-12.45,0-8,5.35-12.8,12-12.8C385.55,904.38,390.25,909.43,390.25,916.78ZM371.1,917c0,5.3,3,9.3,7.3,9.3s7.35-4,7.35-9.4c0-4.1-2.05-9.25-7.25-9.25S371.1,912.48,371.1,917Z"/><path class="cls-10" d="M395.8,912.43c0-2.85-.05-5.3-.2-7.55h3.85l.2,4.8h.15a7.32,7.32,0,0,1,6.75-5.3,9,9,0,0,1,1.2.1v4.15a6.85,6.85,0,0,0-1.5-.1c-3.1,0-5.3,2.3-5.9,5.6a13.16,13.16,0,0,0-.15,2v12.9h-4.4Z"/><path class="cls-10" d="M418.65,899.08v5.8H425v3.35h-6.3v13c0,3,.85,4.7,3.3,4.7a8.22,8.22,0,0,0,2.55-.3l.2,3.35a12,12,0,0,1-3.9.6,6.28,6.28,0,0,1-4.75-1.85c-1.2-1.35-1.7-3.5-1.7-6.35v-13.2H410.6v-3.35h3.75v-4.5Z"/><path class="cls-10" d="M434.8,898.08a2.63,2.63,0,0,1-2.8,2.7,2.59,2.59,0,0,1-2.65-2.7,2.68,2.68,0,0,1,2.75-2.75A2.64,2.64,0,0,1,434.8,898.08Zm-4.9,31v-24.2h4.4v24.2Z"/><path class="cls-10" d="M441,924.63a12.43,12.43,0,0,0,5.85,1.7c3.15,0,4.65-1.55,4.65-3.6s-1.25-3.2-4.45-4.4c-4.4-1.6-6.45-4-6.45-6.85,0-3.9,3.2-7.1,8.35-7.1a11.23,11.23,0,0,1,5.9,1.5l-1.05,3.2a9.38,9.38,0,0,0-4.95-1.45c-2.6,0-4,1.5-4,3.3,0,2,1.4,2.9,4.55,4.15,4.15,1.55,6.35,3.65,6.35,7.25,0,4.3-3.35,7.3-9,7.3a13.8,13.8,0,0,1-6.8-1.7Z"/><path class="cls-10" d="M471.8,911.43c0-2.55-.05-4.55-.2-6.55h3.9l.25,4h.1a9,9,0,0,1,8-4.5c3.35,0,8.55,2,8.55,10.3v14.4H488v-14c0-3.9-1.45-7.15-5.6-7.15a6.45,6.45,0,0,0-6.2,6.55v14.55h-4.4Z"/><path class="cls-10" d="M504.45,898.08a2.63,2.63,0,0,1-2.8,2.7,2.59,2.59,0,0,1-2.65-2.7,2.68,2.68,0,0,1,2.75-2.75A2.64,2.64,0,0,1,504.45,898.08Zm-4.9,31v-24.2H504v24.2Z"/><path class="cls-10" d="M510.65,924.63a12.43,12.43,0,0,0,5.85,1.7c3.15,0,4.65-1.55,4.65-3.6s-1.25-3.2-4.45-4.4c-4.4-1.6-6.45-4-6.45-6.85,0-3.9,3.2-7.1,8.35-7.1a11.23,11.23,0,0,1,5.9,1.5l-1,3.2a9.38,9.38,0,0,0-5-1.45c-2.6,0-4,1.5-4,3.3,0,2,1.4,2.9,4.55,4.15,4.15,1.55,6.35,3.65,6.35,7.25,0,4.3-3.35,7.3-9,7.3a13.8,13.8,0,0,1-6.8-1.7Z"/><path class="cls-10" d="M531.05,893.58h4.4v35.5h-4.4Z"/><path class="cls-10" d="M573.5,922.43c0,2.55,0,4.75.2,6.65h-3.9l-.25-4h-.1a9,9,0,0,1-8,4.5c-3.8,0-8.35-2.15-8.35-10.6V904.88h4.4v13.35c0,4.6,1.45,7.75,5.4,7.75a6.33,6.33,0,0,0,5.8-4.05,6,6,0,0,0,.4-2.25v-14.8h4.4Z"/><path class="cls-10" d="M586.1,899.08v5.8h6.3v3.35h-6.3v13c0,3,.85,4.7,3.3,4.7a8.22,8.22,0,0,0,2.55-.3l.2,3.35a12,12,0,0,1-3.9.6,6.28,6.28,0,0,1-4.75-1.85c-1.2-1.35-1.7-3.5-1.7-6.35v-13.2h-3.75v-3.35h3.75v-4.5Z"/><path class="cls-10" d="M597.35,912.78c0-3.1-.1-5.6-.2-7.9h3.9l.25,4.15h.1a9.42,9.42,0,0,1,8.6-4.65c5.9,0,10.3,5,10.3,12.25,0,8.7-5.35,13-11,13a8.49,8.49,0,0,1-7.45-3.8h-.1V939h-4.35Zm4.35,6.45a6.79,6.79,0,0,0,6.8,6.95c4.65,0,7.35-3.8,7.35-9.35,0-4.8-2.55-9-7.2-9a6.93,6.93,0,0,0-6.65,5.4,7.13,7.13,0,0,0-.3,1.75Z"/><path class="cls-10" d="M642.8,923.28a40.6,40.6,0,0,0,.35,5.8H639.2l-.35-3.05h-.15a9,9,0,0,1-7.4,3.6c-4.9,0-7.4-3.45-7.4-7,0-5.85,5.2-9,14.55-9v-.5c0-1.95-.55-5.6-5.5-5.55a11.66,11.66,0,0,0-6.35,1.8l-1-2.95a15.67,15.67,0,0,1,8-2.1c7.4,0,9.2,5,9.2,9.85Zm-4.25-6.55c-4.8-.1-10.25.75-10.25,5.45a3.85,3.85,0,0,0,4.1,4.2,6.11,6.11,0,0,0,6-4,5,5,0,0,0,.2-1.4Z"/><path class="cls-10" d="M655,899.08v5.8h6.3v3.35H655v13c0,3,.85,4.7,3.3,4.7a8.22,8.22,0,0,0,2.55-.3l.2,3.35a12,12,0,0,1-3.9.6,6.28,6.28,0,0,1-4.75-1.85c-1.2-1.35-1.7-3.5-1.7-6.35v-13.2H647v-3.35h3.75v-4.5Z"/><path class="cls-10" d="M665.05,926.48a3,3,0,0,1,3-3.15,2.92,2.92,0,0,1,3,3.15,3,3,0,0,1-3,3.15A2.94,2.94,0,0,1,665.05,926.48Z"/><path class="cls-10" d="M691.35,895.38v20c0,7.5,3.35,10.7,7.85,10.7,4.95,0,8.2-3.3,8.2-10.7v-20h4.4v19.7c0,10.35-5.45,14.55-12.75,14.55-6.9,0-12.1-3.9-12.1-14.4V895.38Z"/><path class="cls-10" d="M724.7,899.08v5.8H731v3.35h-6.3v13c0,3,.85,4.7,3.3,4.7a8.22,8.22,0,0,0,2.55-.3l.2,3.35a12,12,0,0,1-3.9.6,6.28,6.28,0,0,1-4.75-1.85c-1.2-1.35-1.7-3.5-1.7-6.35v-13.2h-3.75v-3.35h3.75v-4.5Z"/><path class="cls-10" d="M748.1,904.88l3.25,12.3c.65,2.7,1.3,5.2,1.75,7.7h.15c.55-2.45,1.35-5,2.15-7.65l4-12.35h3.7L766.8,917c.9,2.9,1.6,5.45,2.15,7.9h.15A72.77,72.77,0,0,1,771,917l3.45-12.15h4.35l-7.8,24.2h-4l-3.7-11.55a80.65,80.65,0,0,1-2.15-7.95H761a71.61,71.61,0,0,1-2.2,8l-3.9,11.5h-4l-7.3-24.2Z"/><path class="cls-10" d="M788.05,898.08a2.63,2.63,0,0,1-2.8,2.7,2.59,2.59,0,0,1-2.65-2.7,2.68,2.68,0,0,1,2.75-2.75A2.64,2.64,0,0,1,788.05,898.08Zm-4.9,31v-24.2h4.4v24.2Z"/><path class="cls-10" d="M794.25,924.63a12.43,12.43,0,0,0,5.85,1.7c3.15,0,4.65-1.55,4.65-3.6s-1.25-3.2-4.45-4.4c-4.4-1.6-6.45-4-6.45-6.85,0-3.9,3.2-7.1,8.35-7.1a11.23,11.23,0,0,1,5.9,1.5l-1.05,3.2a9.38,9.38,0,0,0-4.95-1.45c-2.6,0-4,1.5-4,3.3,0,2,1.4,2.9,4.55,4.15,4.15,1.55,6.35,3.65,6.35,7.25,0,4.3-3.35,7.3-9,7.3a13.8,13.8,0,0,1-6.8-1.7Z"/><path class="cls-10" d="M819.55,898.08a2.63,2.63,0,0,1-2.8,2.7,2.59,2.59,0,0,1-2.65-2.7,2.68,2.68,0,0,1,2.75-2.75A2.64,2.64,0,0,1,819.55,898.08Zm-4.9,31v-24.2h4.4v24.2Z"/><path class="cls-10" d="M839.2,917.78c.1,6,3.85,8.4,8.3,8.4a15.74,15.74,0,0,0,6.7-1.25l.8,3.15a19.71,19.71,0,0,1-8.1,1.55c-7.45,0-11.9-5-11.9-12.25s4.3-13,11.35-13c7.95,0,10,6.9,10,11.35a10.73,10.73,0,0,1-.15,2Zm12.9-3.15c0-2.75-1.15-7.1-6.1-7.1-4.5,0-6.4,4.05-6.75,7.1Z"/><path class="cls-10" d="M861.8,911.43c0-2.55,0-4.55-.2-6.55h3.9l.25,4h.1a9,9,0,0,1,8-4.5c3.35,0,8.55,2,8.55,10.3v14.4H878v-14c0-3.9-1.45-7.15-5.6-7.15a6.45,6.45,0,0,0-6.2,6.55v14.55h-4.4Z"/><path class="cls-10" d="M894.45,898.08a2.63,2.63,0,0,1-2.8,2.7,2.59,2.59,0,0,1-2.65-2.7,2.68,2.68,0,0,1,2.75-2.75A2.64,2.64,0,0,1,894.45,898.08Zm-4.9,31v-24.2H894v24.2Z"/><path class="cls-10" d="M901.25,911.43c0-2.55-.1-4.55-.2-6.55h3.85l.2,4h.15a8.36,8.36,0,0,1,7.65-4.45,7.14,7.14,0,0,1,6.8,4.85h.1a9.55,9.55,0,0,1,2.75-3.15,8.12,8.12,0,0,1,5.3-1.7c3.25,0,8,2.1,8,10.5v14.2h-4.3V915.43c0-4.7-1.75-7.45-5.25-7.45a5.78,5.78,0,0,0-5.25,3.95,7.51,7.51,0,0,0-.35,2.2v15h-4.3v-14.5c0-3.85-1.7-6.6-5-6.6-2.7,0-4.75,2.2-5.45,4.4a5.88,5.88,0,0,0-.35,2.15v14.55h-4.3Z"/><path class="cls-10" d="M970.35,923.28a40.6,40.6,0,0,0,.35,5.8h-4L966.4,926h-.15a9,9,0,0,1-7.4,3.6c-4.9,0-7.4-3.45-7.4-7,0-5.85,5.2-9,14.55-9v-.5c0-1.95-.55-5.6-5.5-5.55a11.66,11.66,0,0,0-6.35,1.8l-1-2.95a15.67,15.67,0,0,1,8-2.1c7.4,0,9.2,5,9.2,9.85Zm-4.25-6.55c-4.8-.1-10.25.75-10.25,5.45a3.85,3.85,0,0,0,4.1,4.2,6.11,6.11,0,0,0,5.95-4,5,5,0,0,0,.2-1.4Z"/><path class="cls-10" d="M998.3,893.58v29.25c0,2.15.1,4.6.2,6.25h-3.9l-.2-4.2h-.15a8.74,8.74,0,0,1-8.15,4.75c-5.85,0-10.4-5-10.4-12.3-.05-8.05,5-13,10.85-13,3.75,0,6.2,1.75,7.3,3.65h.1V893.58ZM994,914.73a7.77,7.77,0,0,0-.2-1.85,6.48,6.48,0,0,0-6.35-5c-4.55,0-7.25,4-7.25,9.3,0,4.9,2.45,9,7.15,9a6.67,6.67,0,0,0,6.45-5.25,7.64,7.64,0,0,0,.2-1.9Z"/><rect class="cls-11" x="60.86" y="187.6" width="127.75" height="127.75" rx="12"/><path class="cls-12" d="M108.16,283.88c-5-8.39-9.94-16.89-15.22-25.13a13.86,13.86,0,0,1-2-9.06c.43-5.48.79-11,1.29-16.46a4.7,4.7,0,0,1,1.13-2.65q4.38-4.56,9-8.86a5.42,5.42,0,0,1,2.89-1.26c4.82-.53,9.66-.88,14.49-1.36a3.74,3.74,0,0,1,3.75,1.59c2,2.73,4.32,5.3,6.25,8.1A8.22,8.22,0,0,1,131,233a55.25,55.25,0,0,1-.4,8,3.43,3.43,0,0,1-1.37,2.39c-.58.3-1.67-.35-2.52-.63-.18-.06-.31-.29-.47-.44-3.55-3.52-5.61-3.29-7.94,1.17a52.77,52.77,0,0,0-2.6,6.89,1.9,1.9,0,0,0,.08,1.43c3.39,5.65,6.82,11.28,10.55,17.42,1.67-2.67,3.24-4.9,4.46-7.3.36-.72-.43-1.95-.41-2.93a11,11,0,0,1,.6-4.31,95,95,0,0,1,4.72-8.32,37.06,37.06,0,0,1,2.67-3.4c-.44-5.94.88-8.48,5.25-9.56a6.88,6.88,0,0,1,8,4.06c1.62,3.84.25,6.78-4.64,9.93l.52,2.79c1.87-.21,3.64-.48,5.42-.59,1.36-.09,2.71.41,2.43,2s.37,3.78-2.43,3.85c-2.53.06-5.06.25-7.59.46a5.41,5.41,0,0,0-1.49.65c.26.47.41,1.18.81,1.38,5.15,2.57,5.61,7,5.28,12.07s-.08,5.22,5.26,5.24c.44,0,.88,0,1.31,0,1.88.1,2.49.88,1.95,2.67a7.73,7.73,0,0,1-5.4,5.22c-.6.2-1.15.51-1.73.77Zm31.13-1.58c-3.19-2.47-6-4.48-8.58-6.7-2.25-1.92-4.7-3.79-6.35-6.17-3.6-5.18-6.79-10.65-10-16.06a4.22,4.22,0,0,1-.7-3,52,52,0,0,1,4.22-9.9c1.93-3.14,4.85-3.31,7.91-1.26.4.26.81.5,1.21.75-.54-2.56-1.61-4.83-2.34-7.2-.57-1.87-1.76-2.45-3.48-2.59-2.24-.17-4.49-.31-6.7-.69a2.78,2.78,0,0,0-3,1.14c-1.6,2-3.34,3.83-4.94,5.8-.91,1.11-1.57,1.11-2.31-.26,2.27-2.62,4.48-5.31,6.88-7.81a3.9,3.9,0,0,1,2.73-.84c2.52.13,5,.57,7.55.77s4.43.86,5.08,3.71a25.5,25.5,0,0,0,2,4.55l.59-.22c.1-2.69.84-5.41-1.51-7.82a40.24,40.24,0,0,1-4.58-5.81A3.63,3.63,0,0,0,119,221c-3.82.43-7.64.79-11.45,1.21-1.61.18-3.26-.11-4.62,1.37-2.46,2.66-5.18,5.09-7.72,7.68a4,4,0,0,0-1.17,2.19c-.51,6.72-.92,13.45-1.31,20.17a3.46,3.46,0,0,0,.51,1.84q7.7,12.78,15.46,25.51c.31.52.9,1.21,1.37,1.22,3.8.1,7.6.06,12,.06-1.62-2.76-2.92-5-4.25-7.2q-6.76-11.31-13.56-22.6c-.56-.94-1.34-1.92.64-2.46.41.65.85,1.29,1.25,2,5,8.35,10.29,16.53,14.85,25.11,2.29,4.3,5,6,9.68,5.34A69.77,69.77,0,0,1,139.29,282.3Zm5.5-37a5.14,5.14,0,0,0,5.33-4.9,5.39,5.39,0,0,0-5.28-5.28,5.58,5.58,0,0,0-5.27,5.13A5.26,5.26,0,0,0,144.79,245.26Zm-12.52,12.88c.32,4,2.11,5.78,8.34,7.33,2.56.63,4-2,5.91-3C142.72,257.09,137.46,257.83,132.27,258.14Zm4.32,19.15-.11.5a12.83,12.83,0,0,0,2,1.09c2.59.89,5.22,1.69,7.82,2.55a9.53,9.53,0,0,0,7.9-1.05c1-.55,1.63-1.73,2.43-2.62l-.44-.47Zm11.33-13.22c-1.58,1-2.57,1.68-3.65,2.22a3,3,0,0,0-1.87,3.48c.12.93-.08,1.9,0,2.82s.36,2.29.74,2.36a16.4,16.4,0,0,0,4.25-.09c.19,0,.46-.57.46-.88C147.94,270.88,147.92,267.79,147.92,264.07Zm-15,10.31.19.72c2.2,0,4.4,0,6.59-.05.31,0,.84-.64.86-1a39.17,39.17,0,0,0,0-5.63c-.06-.56-.9-1.22-1.52-1.47a1.79,1.79,0,0,0-1.57.61C135.83,269.79,134.37,272.1,132.87,274.38Zm3.18-8.44c-5.11-2.79-3.8-2.59-7.44,2.92-1.06,1.6-.3,2.73,2.77,4.23ZM144.6,250l.37-.72a55.53,55.53,0,0,0-4.85-3.45,2.4,2.4,0,0,0-2.3.44c-1.87,3-3.53,6.08-5.52,9.58h6.5c-.73-1.18-1.25-2-1.78-2.86-1.05-1.62-.14-2.87.77-4.14s2-.77,3.07-.3S143.35,249.51,144.6,250Zm-1,1.73a18.53,18.53,0,0,0-2-1c-1-.35-2.43-1.45-2.77.33-.17.92.81,2.42,1.7,3.08C141.67,255,143,254,143.61,251.72Zm1.5,2.35c2.75-.22,5-.35,7.28-.63.32,0,.78-.85.74-1.25a1.4,1.4,0,0,0-1.13-.82c-2,.31-4,.75-5.94,1.23C145.79,252.67,145.64,253.23,145.11,254.07Z"/><rect class="cls-11" x="60.86" y="346.59" width="127.75" height="127.75" rx="12"/><path class="cls-12" d="M103.76,442.85a22.21,22.21,0,0,0-2.63-1.84c-1.9-.95-2-2.2-1-3.89,3.17-5.19,6.26-10.45,9.51-15.6.89-1.42.79-2.26-.35-3.53-12.26-13.73-5.77-35.15,11.85-39.31a24.19,24.19,0,0,1,12.44.45q4.16,1.2,8.28,2.5c.93.3,1.8.78,2.93,1.27-1.73,1.86-.64,3,.45,4.4,6.06,7.76,6.31,19.48.7,27.71a23.23,23.23,0,0,1-25.77,9.38c-1.86-.54-2.85-.23-3.84,1.47-2.88,4.95-6,9.78-8.93,14.68a19.11,19.11,0,0,0-1,2.31Zm34.45-57c.65.61,1.21,1.11,1.75,1.65,5.78,5.8,7.48,12.77,4.88,20.38s-8.35,12.07-16.45,13a18.94,18.94,0,0,1-18.72-10.25c-3.69-7.36-3-14.49,2.09-21,3.9-5.06,9.57-7.05,15.52-8.46.6-.15,1.18-.41,1.78-.61a13.8,13.8,0,0,0-5.51-.43c-12.7,2.14-20.4,13.16-18.19,25.89,2.06,11.82,14.42,19.8,26.1,17.07,9.71-2.28,16.14-11.46,16.59-19.29a22.42,22.42,0,0,0-6.38-17.58A2.26,2.26,0,0,0,138.21,385.83ZM109.74,405c2.88-1.73,5.4-3.26,8-4.75a5.32,5.32,0,0,1,2.52-1.12c2.05.11,2.87-.94,3.31-2.66a19.51,19.51,0,0,1,7.82-11.6,10.78,10.78,0,0,0,1.65-1.78l-.38-.55c-7.41,1.11-14.83,2.32-19.85,8.87A15.61,15.61,0,0,0,109.74,405Zm21.71-2.57c-.26,1.84.65,2.49,2.2,2.56,2.81.14,5.63.26,8.44.43,1.55.1,1.84-.91,1.88-2.07a17.82,17.82,0,0,0-6.9-15.19c-1.09-.88-2.07-.86-2.66.38-1.07,2.27-2,4.62-2.94,6.93a2.82,2.82,0,0,0,1.22,3.88c1.55,1,1.15,2-.36,2.67Zm-7.78,16.23c-1.77-2.08-3.24-3.72-4.61-5.45-.51-.66-1.28-1.75-1.06-2.23,1.57-3.36,1.07-8.06,5.85-9.41.2-.06.33-.39.49-.59a10.8,10.8,0,0,0-5.07.77c-2.6,1.26-5,2.93-7.53,4.35-1.27.71-1.69,1.66-.83,2.82a50.53,50.53,0,0,0,5.26,6.54A12,12,0,0,0,123.67,418.62ZM105,440.84,116,423l-3.63-2.25-11,17.94Zm23.71-37.4a5.8,5.8,0,0,0-2.86,4.65c-.32,3.53,1.74,5.81,4.16,7.88,2.72,2.32,4.34,2.14,6.54-.29C133.92,411.62,131.38,407.67,128.68,403.44Zm.48,15.54.35-.78c-4.91-3.85-7.77-8.32-4.38-14.63-2.58.29-5.86,6.19-4.78,8.23a1.48,1.48,0,0,0,.25.35c2,2.08,4,4.23,6.06,6.18C127.22,418.85,128.31,418.78,129.16,419Zm4.22-12.11-.5.89,5.91,6.72,4.33-7.07Zm-1.5-19.6c-4.32,2.36-5.39,6.68-6.44,11.22,1.37-.27,3.14-.61,3.5-1.5C130.18,393.89,130.92,390.59,131.88,387.27Z"/><rect class="cls-11" x="60.86" y="505.58" width="127.75" height="127.75" rx="12"/><path class="cls-12" d="M89.12,578.76l5.46-1.17c-.19-.65-.34-1.39-.62-2.09-1.22-3.1-2.43-6.21-3.75-9.28a4.14,4.14,0,0,1,.44-4.46c2.58-3.6,5-7.31,7.57-10.92a5.8,5.8,0,0,1,2.24-1.94c3.18-1.4,6.46-2.58,9.66-3.94a1.71,1.71,0,0,1,2.5.8c1.79,3,3.67,5.92,5.44,8.92.88,1.48.24,2.7-1.49,2.51s-3.54-1-5.34-1.45c-.79-.18-2.13-.34-2.39,0-.82,1.2-2.56,2.22-1.46,4.13,3.27,5.74,6.5,11.5,9.86,17.18a3.38,3.38,0,0,0,2.21,1.3,38.49,38.49,0,0,0,4.9.05c-1.09-2.24-1.89-4.13-2.91-5.89a5.62,5.62,0,0,1-.49-5.31,90.52,90.52,0,0,0,2.71-8.71,3.68,3.68,0,0,1,2.6-2.87c2.2-.73,4.34-1.63,6.47-2.55a2.27,2.27,0,0,1,3.29,1c1.13,1.94,2.38,3.82,3.52,5.76,1,1.69.51,2.7-1.43,2.66-1.1,0-2.16-.67-3.27-.92-.69-.16-1.88-.39-2.08-.09-.53.81-1.19,2.18-.84,2.82,2.34,4.42,4.83,8.78,7.52,13,.48.77,2.1.81,3.2,1.19l.46-.68c-.54-1.47-1.13-2.92-1.58-4.42-.24-.8-.65-2-.29-2.48,2.17-3.13,3.35-7.09,7.58-8.53,5.38-1.84,4.35-2.51,7.64,2.77a7,7,0,0,1,.46,2.36c-.86.11-1.73.29-2.6.32a23,23,0,0,1-2.34-.14,10.61,10.61,0,0,0,.57,2.56c.92,1.81,2,3.51,3,5.29.75,1.36,1.42,2.63,3.37,2.52.46,0,1.41,1,1.41,1.55,0,7.39-.1,14.79-.18,22.18H104.38a27.42,27.42,0,0,0-1.95-2.44C98,595,93.56,590.58,89.12,586.17Zm35.76,1.14h-5.44c-8.72,0-17.43,0-26.14,0a2.71,2.71,0,0,0-2,.73c-.8,1.3,0,5.14,1.11,6.25,4.11,4.11,8.2,8.23,12.38,12.26a4.21,4.21,0,0,0,2.66,1.06c16.33.06,32.67,0,49,.07,1.63,0,2.15-.57,2.13-2.15-.06-5.22-.09-10.45,0-15.68,0-2-.51-2.63-2.56-2.62C145.65,580,135.26,579.9,124.88,579.9Zm-9.67-27.34c-1.22-2-2.16-3.43-3-4.92-.58-1.06-1.3-1.15-2.33-.71-2.8,1.2-5.64,2.29-8.43,3.51a4.59,4.59,0,0,0-1.79,1.48c-2.5,3.56-5,7.15-7.32,10.82a3.55,3.55,0,0,0-.27,2.75c1.33,3.67,2.84,7.29,4.36,10.89.25.6.85,1.48,1.33,1.5,3.2.13,6.42.07,10.29.07-1.44-2-2.49-3.3-3.44-4.72a6.9,6.9,0,0,1-1.36-2.63q-1.17-8.16-2-16.36a2.25,2.25,0,0,1,1.06-1.87c3.83-1.34,7.69-4.49,11.65-.23C114,552.28,114.31,552.28,115.21,552.56Zm.81,25.17c-.53-1-.88-1.8-1.3-2.52-2.7-4.72-5.29-9.51-8.18-14.11-1.26-2-1.21-3.52.19-5.28a24.83,24.83,0,0,0,1.77-3c-5.19.61-5.53,1-4.83,5.49.09.57,0,1.16.13,1.73.77,5.28.48,10.68,4.49,15.26C110.57,577.88,112.65,578.33,116,577.73Zm15-.19c-.59-.87-1.14-1.68-1.67-2.5-.44-.67-1.13-1.31-1.22-2-.56-4.23-1-8.48-1.35-12.74a2.82,2.82,0,0,1,1.51-2.19c2.51-.82,5-2.85,8.1-.16-1.71-3.81-1.63-3.51-4.71-2.63-4.13,1.18-5.89,3.73-7.28,7.76a13.73,13.73,0,0,0,1.36,12.65C127.31,578.17,127.77,578.54,131.06,577.54Zm6.6.15c-.35-.77-.59-1.42-.93-2-1.51-2.72-3-5.49-4.61-8.13s-2.85-5.09-.44-7.86c0,0-.09-.24-.14-.36-2.91.39-3,.47-2.57,3.12.08.58,0,1.17.11,1.74.58,4.24.37,8.61,3.64,12.17C134.22,578,135.54,578.26,137.66,577.69Zm9.4-11.52c-4,4-4.17,4.83-2.3,9.4,1.13,2.77,1.66,3,4.34,2.18Zm7.58,11.65L150,569.74C149.41,574.21,151.37,577.73,154.64,577.82Z"/><path class="cls-12" d="M149.22,542.25a5.17,5.17,0,0,1-10.33-.11,5,5,0,0,1,5.26-5.09A4.83,4.83,0,0,1,149.22,542.25Zm-5.13,3.11a3.16,3.16,0,0,0,3.18-3.33,3,3,0,0,0-3.12-3.12,3.14,3.14,0,0,0-3.33,3.17A3.27,3.27,0,0,0,144.09,545.36Z"/><path class="cls-12" d="M123.18,592.21c2.1-.72,4.18-1.57,6.33-2.12a3.63,3.63,0,0,1,2.59.52,5.8,5.8,0,0,0,6.29.44c3.3-1.69,5.73.84,8.48,1.76.23.08.29.7.42,1.06-.41.16-1,.56-1.21.42a11.14,11.14,0,0,0-10.53-.54A3.46,3.46,0,0,1,133,593a5.16,5.16,0,0,0-5.67-.37,8.44,8.44,0,0,1-2.65.88c-.53.07-1.12-.4-1.68-.63Z"/><path class="cls-12" d="M100.73,586.68c.31-.49.51-1.24,1-1.42a21.13,21.13,0,0,1,5.31-1.82,7.08,7.08,0,0,1,3.83,1c1.4.72,2.7,1,4.07.26,3.45-2,6.41-.09,9.43,1.17.32.14.45.73.67,1.11-.46.21-.91.43-1.37.63,0,0-.13-.05-.19-.09-3.27-2-6.6-2-10.07-.48a2.75,2.75,0,0,1-2.18-.46,6.28,6.28,0,0,0-6.9-.41,21.46,21.46,0,0,1-2.86,1Z"/><rect class="cls-11" x="60.86" y="823.56" width="127.75" height="127.75" rx="12"/><path class="cls-12" d="M89.27,886.69a10.9,10.9,0,0,1,8.39-1.47,21.76,21.76,0,0,0,6.93.15c4-.51,7.89.21,11.83.94a18.85,18.85,0,0,0,6.82-.11c3.27-.63,6.42-1,9.62.15,1.5.55,2.54.22,3.09-1.51a6.65,6.65,0,0,1,4.76-4.38,2.28,2.28,0,0,0,1.3-1.7c-.13-2.24-.56-4.45-.83-6.68-.19-1.5-.78-2.33-2.51-2.17a2.61,2.61,0,0,1-2.17-.8c-.27-.49.18-1.59.61-2.21,2.48-3.59,5-7.1,7.56-10.66.94-1.34,1.9-1.67,3.18-.4,3.8,3.79,7.64,7.55,11.45,11.33,1.2,1.19,1.37,2.09-.48,2.9-.5.22-.83,1.37-.82,2.09.09,8-.07,16.1.52,24.11.42,5.65-1.16,9.82-5.56,13.38-3.15,2.54-5.78,5.71-8.61,8.63a9.84,9.84,0,0,0-1,1.54h-54Zm27.24,31.52c7.62,0,15.24.06,22.86-.06a5.46,5.46,0,0,0,3.41-1.36c4.29-4.12,8.47-8.36,12.59-12.66a4.63,4.63,0,0,0,1.14-2.84c.1-5.66,0-11.33.08-17,0-1.57-.42-2.19-2.09-2.16-2.67,0-5.37-.38-8-.2-5.33.38-7.87-.15-9.81,6.67-1.15,4-2.16,8.11-3,12.21a4.57,4.57,0,0,1-2.34,3.38c-3,1.75-5.92,3.68-8.94,5.39a6.94,6.94,0,0,1-3.25.91c-7.55.08-15.1,0-22.65,0-5.23,0-5.13,0-5.24,5.14,0,2.06.68,2.59,2.62,2.57C101.4,918.16,109,918.21,116.51,918.21Zm-10.46-9.59c8.79,1.34,16.85-.2,23.82-6a8.28,8.28,0,0,0,.9-.6,3.08,3.08,0,0,0,.85-1.21c.86-3.58,1.71-7.17,2.46-10.78.09-.45-.34-1.44-.64-1.48a42,42,0,0,0-7.23-.76c-2.87.06-5.83,1.23-8.57.78-4.8-.78-9.5-1.66-14.42-1.21-2.63.24-5.33-.3-8-.32s-4.12.54-4,3.63c.22,5.21.13,10.45,0,15.68,0,1.84.62,2.38,2.39,2.34C97.77,908.55,101.91,908.62,106.05,908.62ZM156,875.25a18.79,18.79,0,0,0-.07-3.68c-.12-.61-.95-1.5-1.49-1.52-3.4-.14-6.81-.06-10.21-.08-1.15,0-1.59.5-1.42,1.59.08.57.22,1.13.33,1.7.38,2.16.06,5.14,1.34,6.26s4.27.72,6.5.74C156.72,880.33,155.92,881.15,156,875.25Zm.83-7.27-10.6-10.69L138.62,868Z"/><path class="cls-12" d="M125.61,868.69a5.32,5.32,0,0,1-.1-10.63,5.32,5.32,0,1,1,.1,10.63Zm3.47-5.22a3.54,3.54,0,0,0-3.36-3.53,3.43,3.43,0,0,0-.2,6.86A3.53,3.53,0,0,0,129.08,863.47Z"/><path class="cls-12" d="M102.31,901.23a40,40,0,0,1,5.08-1.82,4.67,4.67,0,0,1,3,.56,7.63,7.63,0,0,0,8.19.08c2.81-1.66,5,.05,7.19,1.31.36.2.35,1.06.51,1.63-.56.11-.75.21-.83.15-3-2.34-6-1.59-9.1-.26a5.12,5.12,0,0,1-3.83-.12c-2.83-1.42-5.48-2-8.4-.37-.48.27-1.31-.13-2-.22Z"/><path class="cls-12" d="M118.49,895.1c-.63.1-.73.14-.77.11-3.07-2.4-6.2-1.64-9.29-.07a4.2,4.2,0,0,1-4.29-.45,7.2,7.2,0,0,0-7.57-.29c-.47.25-1.29-.14-1.94-.24a7.71,7.71,0,0,1,1.32-1.3c2.82-1.66,5.67-1.88,8.53-.05,2.11,1.34,4.2.46,6-.54,2.9-1.64,5.12-.29,7.39,1.13C118.23,893.65,118.26,894.46,118.49,895.1Z"/><rect class="cls-11" x="60.86" y="664.57" width="127.75" height="127.75" rx="12"/><path class="cls-12" d="M89.21,728.53a22.6,22.6,0,0,1,3.3-.71c1.45-.11,2-.53,1.38-2a37.9,37.9,0,0,1-2.11-5.7,6.18,6.18,0,0,1,.36-3.41c.38-1.06,1.38-1.89,1.83-2.94,1.93-4.47,5.69-6.5,10-7.91,1.48-.49,2.49-.35,3.26,1.1s1.69,2.72,2.36,4.16c.32.68.55,1.87.2,2.27s-1.53.51-2.34.53c-.46,0-.91-.45-1.4-.55s-1.68-.34-1.87-.05a2.83,2.83,0,0,0-.53,2.29c2,3.81,4,7.58,6.24,11.22.42.68,1.86.74,2.83,1.09l.35-.59a5.35,5.35,0,0,0-.53-1.55c-3.26-4.24-.22-8.09.71-12.06a72.25,72.25,0,0,1,6.83-2.83c.36-.12,1.26,1.34,1.87,2.1a3.49,3.49,0,0,1,.66,1.13c.28,1,.48,2,.72,2.94l-3,.12c-.53,0-1.16-.08-1.54.17a1.38,1.38,0,0,0-.2,1.32c1.63,3,3.35,5.93,5.06,8.88.08.14.37.15.71.26.24-.78.44-1.51.7-2.23a4.92,4.92,0,0,1,5.41-3.44c2.22.17,3.79,1.7,4.43,4.13a6.81,6.81,0,0,0,1.16,1.8c.47-.38,1.18-.67,1.37-1.15,1.4-3.67,4.49-4.46,7.88-4.7,1.43-.1,2.88,0,5,0q-2.16-6.85-3.94-12.5c-4.66,2.55-8.88,4.87-13.11,7.15a3.91,3.91,0,0,1-1.82.59c-.64,0-1.66-.25-1.81-.65a2.35,2.35,0,0,1,.44-2c2.75-2.89,4.81-6.61,9.49-7.66-3.7-3.08-6.91-6-11.72-5.6a4.55,4.55,0,0,1-1.52-.08c-.64-.18-1.54-.36-1.77-.82s.27-1.31.68-1.78c2.79-3.12,6.35-3,10-2.24a1.6,1.6,0,0,0,.21.05c4.28,0,7.6,1.87,10.17,5.73,2.48-3.92,6.42-3.39,9.85-4.18a4.92,4.92,0,0,1,2.89.23c.8.35,2,1.36,1.91,1.88a4.17,4.17,0,0,1-1.81,2.84,55.07,55.07,0,0,1-7,2.19c-.59.17-1.21.29-2.18.51,1.08,1.41,1.91,2.56,2.81,3.65,3.45,4.18,5.36,9.08,6.73,14.23a6.71,6.71,0,0,1,.09,1.74c0,5.88.09,11.77-.06,17.65a8,8,0,0,1-1.32,4.2c-3.19,4.59-6.59,9-9.91,13.53H89.21Zm29.64,30.68c8.5,0,17,0,25.49,0a3.8,3.8,0,0,0,3.46-1.7c2.66-3.63,5.48-7.14,8.06-10.83a7.48,7.48,0,0,0,1.33-4c.06-5.51-.17-11-.21-16.53,0-1.36-.55-1.74-1.82-1.76-2.89,0-5.81-.44-8.68-.22-5,.38-7-.09-8.46,6.34-1.15,5.07-1.82,10.25-2.8,15.36-.18.9-.7,2.25-1.34,2.43-4.63,1.34-9,3.63-14,3.59-7.91-.07-15.82-.06-23.74,0-5.72,0-4.73-.84-4.93,5-.06,1.87.64,2.32,2.39,2.3C102,759.17,110.43,759.21,118.85,759.21ZM91.4,729.7c-.07.82-.16,1.39-.16,2,0,5.44,0,10.89,0,16.34,0,1.61.47,2.12,2.1,2.1,7-.08,14-.2,20.91,0a44.74,44.74,0,0,0,16-2.37c2.46-.84,3.94-1.76,3.72-4.6a16.68,16.68,0,0,1,.61-3.84c.54-3,1.07-6.09,1.69-9.61Zm15.47-18.12.57-.42c-.87-1.11-2.06-3.29-2.55-3.14a19.23,19.23,0,0,0-6.83,3.32c-1.75,1.49-2.81,3.83-4,5.89a3.38,3.38,0,0,0-.39,2.39,55.13,55.13,0,0,0,2.43,6.5,2.46,2.46,0,0,0,1.7,1.22c2.52.23,5.06.29,7.59.34a16.55,16.55,0,0,0,2.5-.32c-2.17-3.92-4.2-7.42-6-11a3.69,3.69,0,0,1,0-2.93C103.25,710.48,103.37,710.52,106.87,711.58Zm13.28,3.08.38-.59c-.68-.37-1.49-1.18-2-1-2.21.63-4.44,1.39-4.69,4.3a9.91,9.91,0,0,1-.74,2.48c-1.15,3.11.94,5.42,2.52,7.35.83,1,3.51.52,5.36.71l.26-.65-4-7.36C115.63,717,116.86,714.81,120.15,714.66Zm7.67-15.51c.21.23.29.39.41.43a1.8,1.8,0,0,0,.83.19c3.18-.53,5.54,1.08,7.84,2.93a20.2,20.2,0,0,0,3.2,2.24,4.9,4.9,0,0,0,2.64.57,2.8,2.8,0,0,0,1.77-1.26c.18-.3-.33-1.12-.66-1.62-2.13-3.17-5.29-4.22-8.92-4.33C132.56,698.22,130.07,697,127.82,699.15Zm18.93,7.08c1.5,4.25,2.79,7.82,4,11.4.4,1.16.55,2.4,1,3.55.63,1.79,2.21,1.3,3.48,1.13.34,0,.88-1.15.75-1.6C154.35,715.17,151.05,710.71,146.75,706.23ZM158.46,701c-2.89-2-9.83-.12-10.69,2.79C151.5,703.62,155.07,703.31,158.46,701ZM133,727.71c0-2.53-1.27-4-3.19-3.93s-3.21,1.66-2.94,3.93Zm.57-13.47c3.47-1.7,7.49-2.55,9.69-6.22C139.24,708.9,135.49,710.16,133.55,714.24Z"/><path class="cls-12" d="M118.62,735.1a4.87,4.87,0,0,1-1.75.53,6.13,6.13,0,0,1-2.24-.79c-2-1.1-3.89-.8-6,.17a5.73,5.73,0,0,1-4.24.19c-3-1.34-5.83-2-9-.6-.4.18-1.06-.27-1.6-.42.32-.44.56-1.11,1-1.28,3-1.21,6.1-1.8,9.14.13a3.51,3.51,0,0,0,4.24.13c3.74-2.64,6.8.2,10.1,1.08Z"/><path class="cls-12" d="M129.71,740.47c-.4,1-.46,1.35-.57,1.37-1.91.32-4.12,1.33-5.69.73-2.56-1-4.78-1.28-7.28-.26a22.15,22.15,0,0,1-4,1.16c-.42.09-.94-.35-1.42-.55.28-.41.49-1.06.87-1.19a73,73,0,0,1,8.12-2.36c1-.19,2.11.78,3.21,1a16.19,16.19,0,0,0,3,.11Z"/><rect class="cls-11" x="60.86" y="982.55" width="127.75" height="127.75" rx="12"/><path class="cls-12" d="M128.67,1073.91c3.75,1.21,7,2.29,10.36,3.3a2.72,2.72,0,0,0,1.45-.16,12.86,12.86,0,0,0,3-1.13c4-2.59,7.61-.89,11.17,1,.33.17.41.84.6,1.28-.48.1-1.11.45-1.4.27-4.09-2.68-8.1-2.09-12.28-.12a6.35,6.35,0,0,1-4,.1c-2.87-.74-5.69-1.71-8.48-2.73a4,4,0,0,0-4.1.35c-3,2.33-6.27,2.58-9.8,1.42-1.57-.52-3.28-.66-4.84-1.19a17.3,17.3,0,0,0-12.27.52c-1.18.45-2.45.69-3.71,1-.73-1.66.3-1.81,1.27-2.24,6.18-2.8,12.38-2.16,18.62-.27.9.27,1.83.44,2.75.66,3.36.77,5,.31,8-2.3q-3.45-4.82-6.92-9.67c-3.09-4.3-6.18-8.61-9.3-12.89s-5.22-9.17-5.1-14.54a22.82,22.82,0,0,1,45.21-4,23.34,23.34,0,0,1-4.3,18.35c-4.85,6.79-9.6,13.66-14.39,20.49C129.8,1072.13,129.36,1072.85,128.67,1073.91Zm-1.82-1.46c.64-.75,1.1-1.19,1.47-1.71,5-7,9.92-13.94,14.82-21,2.89-4.13,4.85-8.7,4.48-13.8-.67-9-5.22-15.53-13.7-18.66-8.27-3.05-15.9-1.35-22.21,4.92a20.27,20.27,0,0,0-2.4,25.92c4,6,8.37,11.66,12.58,17.47C123.49,1067.85,125.1,1070.05,126.85,1072.45Z"/><path class="cls-12" d="M126.68,1020.2a16.53,16.53,0,1,1-16.77,16.39A16.24,16.24,0,0,1,126.68,1020.2Zm-12.43,24.13c.24-.19.39-.26.44-.38a1.76,1.76,0,0,0,.26-.81c-.34-4.68,2.21-7.71,5.75-10.22.77-.54,1.35-1.35,2.14-1.83a4,4,0,0,1,2.18-.64c1.29.06,2.58.66,3.84.6,4.13-.18,5.76,1.93,6.11,5.8.21,2.24,0,2.73-2.25,2.38-2.41-.38-4.25.68-5.37,3.1a4.5,4.5,0,0,0,1.17,5.7c2.76,2.08,4.33,2.28,6.29,1,7.12-4.53,9.12-14.27,4.17-20.93a15,15,0,0,0-22.07-2.54C111.39,1030.52,110.15,1038.93,114.25,1044.33Zm17.78-9,.6-.46c-.56-.5-1-1.29-1.7-1.46-1.52-.41-3.16-.42-4.69-.81s-2.42.25-3.5,1.1c-3.46,2.7-6,5.67-6.23,10.49-.14,3.58,1.24,5.79,4.7,6,0-2.23-.13-4.49.05-6.71a23,23,0,0,1,1.06-4A6.84,6.84,0,0,1,132,1035.32Zm-1.58,1.91c-1.21-1.08-5.42-.11-5.88,1.53-1,3.58-2.94,7.15-.73,11,1.11,2,2.9,2.52,4.86,1.15C123.32,1045.65,123.84,1041.25,130.45,1037.23Z"/></svg>